<svg id="Layer_1" data-name="Layer 1" xmlns="http://www.w3.org/2000/svg" viewBox="0 0 1262.8 425.2">
    <defs>
        <style>.cls-1{fill:#fff;}.cls-2{fill:#db0011;}.cls-3{fill:none;}</style>
    </defs>
    <polygon class="cls-1"
             points="807.7 140.7 665.9 140.7 595.1 211.6 665.9 282.5 807.7 282.5 878.5 211.6 807.7 140.7"/>
    <polygon class="cls-2" points="878.5 211.6 807.7 140.7 807.7 282.5 878.5 211.6"/>
    <polygon class="cls-2" points="736.8 211.6 807.7 140.7 665.9 140.7 736.8 211.6"/>
    <polygon class="cls-2" points="595.1 211.6 665.9 282.5 665.9 140.7 595.1 211.6"/>
    <polygon class="cls-2" points="736.8 211.6 665.9 282.5 807.7 282.5 736.8 211.6"/>
    <path class="cls-1" d="M940.7,215.9H915v25.4H902.1V181.9H915v24.3h25.7V181.9h12.9v59.4H940.7Z"/>
    <path class="cls-1"
          d="M984.5,242.4c-12.8,0-23.3-5.1-23.6-19.3h12.9c.2,6.3,3.9,10.1,10.9,10.1,5.3,0,11.2-2.6,11.2-8.5,0-4.6-4-6.1-10.7-8l-4.3-1.2c-9.4-2.7-18.6-6.3-18.6-17,0-13.2,12.3-17.6,23.6-17.6,11.6,0,21.5,4,21.6,17.2H994.6c-.5-5.4-3.6-8.5-9.7-8.5-4.8,0-9.5,2.5-9.5,7.8,0,4.4,3.9,5.7,12.3,8.3l4.9,1.6c10.2,3.2,16.6,6.7,16.6,16.6C1009.2,237.2,996.1,242.4,984.5,242.4Z"/>
    <path class="cls-1"
          d="M1016.5,181.9h20.6c6.5,0,9.1.2,11.7.7,7.2,1.6,12.6,6.3,12.6,14.3,0,7.6-4.8,11.6-11.8,13.4,8,1.5,14,5.6,14,14.4,0,13.5-13.3,16.6-23.7,16.6h-23.3V181.9Zm20.6,24.7c5.7,0,11.4-1.1,11.4-8,0-6.2-5.4-7.8-10.6-7.8h-9v15.8Zm1.3,25.8c6,0,11.9-1.4,11.9-8.6s-5.1-8.7-11.2-8.7h-10.2v17.3Z"/>
    <path class="cls-1"
          d="M1097.1,242.4c-19.1,0-27.7-12.2-27.7-30.3,0-17.9,9.5-31.3,28.4-31.3,11.8,0,23.3,5.3,23.6,18.7h-13.3c-.7-5.9-4.6-9-10.3-9-11.6,0-15.1,12.5-15.1,22s3.5,20.4,14.7,20.4c5.8,0,10.1-3.1,11-9.1h13.4C1120.2,237.3,1109.4,242.4,1097.1,242.4Z"/>
    <rect class="cls-1" x="559.3" y="140" width="2.5" height="142.63"/>
    <rect class="cls-3" width="1262.9" height="425.2"/>
    <rect class="cls-1" x="495.81" y="163.55" width="23.99" height="98.7" rx="0.66"/>
    <rect class="cls-1" x="342.89" y="160.35" width="23.99" height="98.7" rx="0.66"/>
    <path class="cls-1"
          d="M217,222.35c-8.68-.5-13.17-.93-13.17-3.36,0-2.66,5.4-3.29,11.21-3.29,8.43,0,15.71,1.41,21.35,4.21a1.81,1.81,0,0,0,2.23-.47l7.6-9.81a1.82,1.82,0,0,0-.63-2.73c-7.85-4-18.56-6.3-30.24-6.3-20.72,0-33.89,8.08-33.89,20.12,0,13.16,16.33,18.26,33,19.18,9.28.63,12.87,1.43,12.87,3.89,0,2.66-4,3.46-11,3.46-11,0-19.69-2.76-26-6.34a1.75,1.75,0,0,0-2.28.42l-7.6,9.46a1.77,1.77,0,0,0,.45,2.63c8.25,5,20.16,8.86,34.76,8.86,23.28,0,34.19-9.51,34.19-20.85C249.71,228.57,235.31,223.28,217,222.35Z"/>
    <path class="cls-1"
          d="M294.32,200.7c-23.18,0-38,11.64-38,30.73s14.82,30.85,38,30.85,38-11.64,38-30.85S317.49,200.7,294.32,200.7Zm0,43.69c-8.81,0-15.23-4.59-15.23-13s6.42-12.87,15.23-12.87,15.2,4.49,15.2,12.87S303.2,244.39,294.32,244.39Z"/>
    <path class="cls-1"
          d="M414.86,200.6c-23.08,0-37.37,11.74-37.37,30.83,0,19.31,14.39,30.85,39.2,30.85,12,0,22.22-2.36,30.17-8.68A1.77,1.77,0,0,0,447,251l-9.25-9.56a1.83,1.83,0,0,0-2.31-.23c-4.91,3.31-9.61,4.94-17.43,4.94-9.88,0-15.93-2.63-17.76-9.68h48.21a1.76,1.76,0,0,0,1.75-1.4,20.77,20.77,0,0,0,.38-4.22C450.6,210.71,435.28,200.6,414.86,200.6Zm-14.1,24.31c2.06-5.72,7.15-8.38,14.3-8.38,7.35,0,11.84,2.86,13.79,8.28Z"/>
    <path class="cls-1"
          d="M459.72,189.67c0-6.63,5.52-10.92,13.48-10.92s13.48,4.29,13.48,10.92-5.51,10.93-13.48,10.93S459.72,196.31,459.72,189.67Z"/>
    <rect class="cls-1" x="461.21" y="205.4" width="23.99" height="56.87" rx="1.79"/>
    <path class="cls-1"
          d="M154.83,172.1l-9.18.05v3.91h10.12a.58.58,0,0,1,.41.41v2.47a.35.35,0,0,1-.12.26.36.36,0,0,1-.26.11H142.12a.32.32,0,0,1-.23-.08.43.43,0,0,1-.09-.26V162.41a.39.39,0,0,1,.09-.26.26.26,0,0,1,.23-.12h13.51a.4.4,0,0,1,.26.15.36.36,0,0,1,.14.25v2.48a.4.4,0,0,1-.11.26.42.42,0,0,1-.26.14h-9.95v3.51h9.09a.45.45,0,0,1,.26.14.42.42,0,0,1,.14.26v2.47a.34.34,0,0,1-.12.26A.38.38,0,0,1,154.83,172.1Z"/>
    <path class="cls-1"
          d="M176.71,179.28H174l-8.8-9a12.31,12.31,0,0,1-.87-.95l-.77-.92-.29-.34h-.09v10.84a.48.48,0,0,1-.08.26c0,.06-.12.08-.23.08H159.6c-.12,0-.19,0-.23-.08a.51.51,0,0,1-.09-.26V162.38a.48.48,0,0,1,.09-.26.27.27,0,0,1,.23-.12h2.64l8.72,8.86c.17.17.48.51.94,1a11.84,11.84,0,0,1,.81.94l.29.38h.11V162.35a.35.35,0,0,1,.12-.26.34.34,0,0,1,.26-.12h3.22a.37.37,0,0,1,.26.12.38.38,0,0,1,.11.26v16.56a.38.38,0,0,1-.11.26A.36.36,0,0,1,176.71,179.28Z"/>
    <path class="cls-1"
          d="M186,165.31h-6.15a.42.42,0,0,1-.26-.14.45.45,0,0,1-.14-.26v-2.48a.4.4,0,0,1,.14-.25.4.4,0,0,1,.26-.15h16.33a.4.4,0,0,1,.26.15.36.36,0,0,1,.14.25v2.48a.39.39,0,0,1-.14.26.42.42,0,0,1-.26.14H190v13.63a.38.38,0,0,1-.11.26.35.35,0,0,1-.26.08h-3.22a.34.34,0,0,1-.26-.08.35.35,0,0,1-.12-.26Z"/>
    <path class="cls-1"
          d="M211.84,172.1l-9.17.05v3.91h10.12a.4.4,0,0,1,.26.15.36.36,0,0,1,.14.26v2.47a.34.34,0,0,1-.11.26.38.38,0,0,1-.26.11H199.13a.36.36,0,0,1-.23-.08.5.5,0,0,1-.08-.26V162.41a.45.45,0,0,1,.08-.26.28.28,0,0,1,.23-.12h13.52a.42.42,0,0,1,.26.15.4.4,0,0,1,.14.25v2.48a.4.4,0,0,1-.11.26.45.45,0,0,1-.26.14h-10v3.51h9.08a.54.54,0,0,1,.41.4v2.47a.34.34,0,0,1-.12.26A.38.38,0,0,1,211.84,172.1Z"/>
    <path class="cls-1"
          d="M216.33,178.94l0-16.56a.48.48,0,0,1,.09-.26.26.26,0,0,1,.23-.12h8a7.85,7.85,0,0,1,5.17,1.64,5.44,5.44,0,0,1,2,4.43,5.06,5.06,0,0,1-1,3.22,6.25,6.25,0,0,1-2.81,2v.06a7.94,7.94,0,0,1,.92,1.15l2.9,4.26a.54.54,0,0,1,.17.34c0,.14-.07.2-.23.2h-3.82a.56.56,0,0,1-.46-.28l-3.51-5.12h-3.71v5.06a.51.51,0,0,1-.09.26c0,.06-.11.08-.23.08h-3.22c-.11,0-.19,0-.23-.08A.59.59,0,0,1,216.33,178.94Zm8-13.63-4.2,0v5.46h4.17a4.13,4.13,0,0,0,2.59-.71,2.55,2.55,0,0,0,0-4A4.1,4.1,0,0,0,224.38,165.31Z"/>
    <path class="cls-1"
          d="M239.39,165.31h-6.15a.4.4,0,0,1-.26-.14.42.42,0,0,1-.15-.26v-2.48a.59.59,0,0,1,.41-.4h16.33a.42.42,0,0,1,.26.15.4.4,0,0,1,.14.25v2.48a.51.51,0,0,1-.4.4h-6.21v13.63a.35.35,0,0,1-.12.26.34.34,0,0,1-.26.08h-3.22a.35.35,0,0,1-.26-.08.38.38,0,0,1-.11-.26Z"/>
    <path class="cls-1"
          d="M262.82,178.91l-1.29-2.62h-8.4l-1.23,2.62a.62.62,0,0,1-.61.37h-3.42c-.15,0-.23-.06-.23-.2a.7.7,0,0,1,.12-.34l8.1-16.71h3L267,178.74a.7.7,0,0,1,.12.34c0,.14-.08.2-.23.2h-3.42A.62.62,0,0,1,262.82,178.91Zm-6.75-8.86-1.59,3.17h5.7L258.62,170c-.13-.29-.31-.73-.54-1.33-.06-.15-.12-.3-.17-.46l-.18-.47-.11-.33-.17-.49h-.18A23.56,23.56,0,0,1,256.07,170.05Z"/>
    <path class="cls-1"
          d="M273.32,162.38v16.56a.51.51,0,0,1-.09.26c0,.06-.11.08-.23.08h-3.22c-.11,0-.19,0-.23-.08a.51.51,0,0,1-.09-.26V162.38a.48.48,0,0,1,.09-.26.27.27,0,0,1,.23-.12H273a.27.27,0,0,1,.23.12A.48.48,0,0,1,273.32,162.38Z"/>
    <path class="cls-1"
          d="M294.8,179.28H292l-8.8-9a12.31,12.31,0,0,1-.87-.95l-.77-.92-.29-.34h-.09v10.84a.48.48,0,0,1-.08.26c0,.06-.12.08-.23.08h-3.22c-.12,0-.19,0-.23-.08a.51.51,0,0,1-.09-.26V162.38a.48.48,0,0,1,.09-.26.27.27,0,0,1,.23-.12h2.64l8.72,8.86c.17.17.48.51.94,1a11.84,11.84,0,0,1,.81.94l.29.38h.11V162.35a.35.35,0,0,1,.12-.26.34.34,0,0,1,.26-.12h3.22a.37.37,0,0,1,.26.12.38.38,0,0,1,.11.26v16.56a.38.38,0,0,1-.11.26A.36.36,0,0,1,294.8,179.28Z"/>
    <path class="cls-1"
          d="M312.22,172.1l-9.17.05v3.91h10.12a.54.54,0,0,1,.4.41v2.47a.38.38,0,0,1-.11.26.4.4,0,0,1-.26.11H299.51a.36.36,0,0,1-.23-.08.42.42,0,0,1-.08-.26V162.41a.38.38,0,0,1,.08-.26.28.28,0,0,1,.23-.12H313a.6.6,0,0,1,.4.4v2.48a.37.37,0,0,1-.12.26.4.4,0,0,1-.26.14h-9.94v3.51h9.08a.42.42,0,0,1,.26.14.38.38,0,0,1,.14.26v2.47a.33.33,0,0,1-.11.26A.4.4,0,0,1,312.22,172.1Z"/>
    <path class="cls-1"
          d="M316.71,178.94l0-16.56a.56.56,0,0,1,.08-.26A.28.28,0,0,1,317,162h8a7.87,7.87,0,0,1,5.17,1.64,5.44,5.44,0,0,1,2,4.43,5.06,5.06,0,0,1-1,3.22,6.23,6.23,0,0,1-2.82,2v.06a6.77,6.77,0,0,1,.92,1.15l2.91,4.26a.6.6,0,0,1,.17.34c0,.14-.08.2-.23.2h-3.82a.55.55,0,0,1-.46-.28l-3.51-5.12h-3.71v5.06a.51.51,0,0,1-.09.26c0,.06-.11.08-.23.08H317c-.11,0-.19,0-.23-.08A.48.48,0,0,1,316.71,178.94Zm8.05-13.63-4.2,0v5.46h4.17a4.13,4.13,0,0,0,2.59-.71,2.57,2.57,0,0,0,0-4A4.12,4.12,0,0,0,324.76,165.31Z"/>
</svg>
