<svg width="305" height="51" viewBox="0 0 305 51" fill="none" xmlns="http://www.w3.org/2000/svg">
    <path
        d="M50.6831 27.3776C49.8168 28.1376 48.8158 28.4986 47.9111 28.3466C47.0256 28.1946 46.3326 27.7386 45.6396 26.8266C45.3701 26.4656 45.1391 26.1046 44.8888 25.7246L44.8118 25.5916L43.0216 22.7796C42.1361 21.3736 41.2313 19.9676 40.3458 18.5806C40.3266 18.5616 40.3073 18.5236 40.3073 18.4856V18.4666C40.2688 18.3906 40.2303 18.3146 40.1533 18.2386L40.1341 18.2196C39.2871 16.7946 37.4583 16.3006 35.9953 17.0986C34.5323 17.8776 34.0126 19.6826 34.8018 21.1076C34.8211 21.1266 34.8211 21.1456 34.8211 21.1456L42.1168 32.6596C42.9638 34.1226 44.8311 34.6166 46.3133 33.7806C46.7946 33.5146 47.1796 33.1156 47.4491 32.6596L50.9526 27.1116C50.9526 27.1306 50.6831 27.3776 50.6831 27.3776Z"
        fill="white"/>
    <path
        d="M18.5878 34.0646C18.6648 34.0646 18.7418 34.0646 18.7996 34.0456C19.8198 33.9506 20.7246 33.3046 21.0903 32.3546C16.7398 28.8586 16.0661 22.5506 19.6081 18.2566C19.7621 18.0666 19.9161 17.8766 20.0893 17.7056C20.4743 17.2876 20.9171 16.9266 21.3598 16.6036L20.4358 16.1856L19.1461 15.5966C18.7611 15.4066 18.3376 15.2926 17.9141 15.2926C16.8938 15.2926 15.9313 15.8816 15.4693 16.7746L15.4501 16.8316L15.3923 16.9266L15.2961 16.8696L15.2576 16.8316C13.8523 15.9576 12.2546 15.4066 10.5991 15.2546C10.2718 15.2166 9.94456 15.2166 9.59806 15.2166C7.40356 15.1976 5.28606 15.9766 3.63056 17.4206C-0.277196 20.8026 -0.835447 26.6166 2.39855 30.6446C3.9963 32.6206 6.36406 33.8556 8.90506 34.0456C9.13606 34.0646 9.36706 34.0836 9.61731 34.0836C11.5423 34.0836 13.6406 33.4376 14.3336 32.6586C14.5261 30.3786 14.2373 28.0986 13.8331 26.7496C12.5433 28.1936 11.0996 28.5546 10.3296 28.6496C10.1371 28.6686 9.94456 28.6876 9.77131 28.6876C9.63656 28.6876 9.50181 28.6876 9.38631 28.6686C8.32756 28.5926 7.34581 28.0796 6.69131 27.2816C6.01756 26.4456 5.70955 25.3816 5.8058 24.2986C5.97905 22.3416 7.55755 20.7456 9.46331 20.5746C9.61731 20.5556 9.75206 20.5556 9.88681 20.5556C11.2343 20.5556 12.4086 21.1256 13.3903 22.2466C14.3528 23.3676 14.9111 24.7926 15.1998 25.7996C15.6618 27.4336 15.7388 29.1246 15.7966 30.7586V30.7776C15.8158 31.0436 15.8158 31.3096 15.8351 31.5756C15.9698 32.9816 17.1633 34.0456 18.5878 34.0646Z"
        fill="white"/>
    <path
        d="M54.5991 21.0676C55.3884 19.7186 54.9264 18.0086 53.5789 17.2296C52.2121 16.4506 50.4796 16.9066 49.6904 18.2366C49.6711 18.2746 49.6519 18.2936 49.6326 18.3316C49.6134 18.3696 47.1686 22.3026 45.1666 25.4756L45.2051 25.5326C45.4361 25.8936 45.6864 26.2736 45.9366 26.5966C46.5719 27.4326 47.1879 27.8696 47.9771 27.9836C48.0926 28.0026 48.2274 28.0216 48.3429 28.0216C49.0359 28.0216 49.7866 27.6986 50.4604 27.1096L51.2496 26.4066L54.5991 21.0676Z"
        fill="white"/>
    <path
        d="M39.1558 6.98419C39.175 5.42619 37.9046 4.13419 36.3068 4.09619H36.2491C35.4983 4.09619 34.7861 4.38119 34.2471 4.89419C33.7081 5.40719 33.4001 6.11019 33.4001 6.85119C33.4193 7.04119 33.4193 7.21219 33.4193 7.40219C33.4386 7.76319 33.4386 8.14319 33.4578 8.52319C33.4578 8.52319 33.6118 13.2542 33.6118 13.2732L33.6311 13.5772C33.7081 15.7812 33.7851 18.5172 33.4001 21.0632C32.9188 24.0652 31.8793 26.2122 30.2046 27.5802C29.5308 28.1502 28.6838 28.5112 27.8176 28.5872C27.7021 28.6062 27.5673 28.6062 27.4518 28.6062C26.3738 28.6062 25.3343 28.1882 24.5643 27.4472C23.7751 26.7062 23.3323 25.6802 23.3323 24.6162C23.3323 23.0582 24.1601 21.6902 25.4883 21.0442C26.0658 20.7592 26.6818 20.6262 27.3363 20.6262C28.9341 20.6452 30.4163 21.3862 31.3981 22.6402C31.7831 20.7972 31.9371 19.0872 31.9371 16.6362C31.6483 16.2942 31.0323 15.9332 30.2431 15.6672C29.2806 15.3442 28.2411 15.1732 27.2208 15.1732C24.6606 15.1542 22.2158 16.1802 20.4448 18.0042C16.8836 21.7472 16.9413 27.5802 20.5411 31.2662C22.3313 33.0712 24.7761 34.0782 27.3941 34.0782C28.5106 34.0782 29.6078 33.8882 30.6473 33.5462C33.8043 32.4822 36.1528 30.0312 37.6158 26.2502L37.5003 26.0602L34.4973 21.3292V21.3102L34.4781 21.2912C34.0353 20.5122 33.9198 19.6002 34.1701 18.7642C34.4203 17.9092 34.9978 17.1872 35.8063 16.7502C36.8843 16.1612 38.2126 16.1992 39.2713 16.8262C39.3098 15.0592 39.2713 13.2732 39.2328 11.5252C39.175 10.0622 39.1365 8.50419 39.1558 6.98419Z"
        fill="white"/>
    <path
        d="M33.3385 6.42191C33.3578 6.26991 33.3963 6.13691 33.4347 6.00391C33.4155 6.13691 33.3578 6.28891 33.3385 6.42191Z"
        fill="white"/>
    <path
        d="M33.3065 6.85301C33.3065 6.70101 33.3258 6.54902 33.345 6.41602C33.3258 6.56802 33.3065 6.72001 33.3065 6.85301C33.3258 7.40401 33.345 7.97402 33.3643 8.52502C33.3258 7.97402 33.3258 7.42301 33.3065 6.85301Z"
        fill="white"/>
    <path
        d="M33.4517 6.00501C33.4709 5.91001 33.5094 5.81501 33.5479 5.73901C33.5094 5.83401 33.4709 5.92901 33.4517 6.00501Z"
        fill="white"/>
    <path
        d="M64.9436 10.9574V6.26444C64.9436 5.08644 65.9253 4.11743 67.1188 4.11743C68.3123 4.11743 69.294 5.08644 69.294 6.26444V10.9574H74.0488C75.2423 10.9574 76.224 11.9264 76.224 13.1044C76.224 14.2824 75.2423 15.2514 74.0488 15.2514H69.294V19.9444C69.294 21.1224 68.3123 22.0914 67.1188 22.0914C65.9253 22.0914 64.9436 21.1224 64.9436 19.9444V15.2514H60.1888C58.9953 15.2514 58.0135 14.2824 58.0135 13.1044C58.0135 11.9264 58.9953 10.9574 60.1888 10.9574H64.9436Z"
        fill="white"/>
    <path
        d="M208.47 33.3808H202.969C202.694 33.3808 202.465 33.1518 202.465 32.8769V7.35988C202.465 7.08501 202.694 6.85596 202.969 6.85596H208.47C208.745 6.85596 208.975 7.08501 208.975 7.35988V32.8769C208.975 33.1518 208.745 33.3808 208.47 33.3808Z"
        fill="white"/>
    <path
        d="M167.397 33.3807H161.896C161.621 33.3807 161.392 33.1516 161.392 32.8767V7.35973C161.392 7.08486 161.621 6.90161 161.896 6.90161H167.397C167.672 6.90161 167.902 7.13067 167.902 7.35973V32.8767C167.902 33.1516 167.672 33.3807 167.397 33.3807Z"
        fill="white"/>
    <path
        d="M135.355 27.792C135.355 30.8155 132.421 33.381 126.187 33.381C122.29 33.381 119.082 32.3731 116.835 30.9988C116.606 30.8613 116.56 30.4948 116.698 30.3116L118.715 27.7462C118.852 27.5629 119.127 27.5171 119.311 27.6545C121.007 28.6166 123.345 29.3496 126.324 29.3496C128.204 29.3496 129.304 29.1205 129.304 28.4333C129.304 27.792 128.341 27.5629 125.866 27.3797C121.374 27.1506 117.019 25.7763 117.019 22.2488C117.019 18.9962 120.548 16.843 126.141 16.843C129.258 16.843 132.146 17.4844 134.255 18.538C134.53 18.6755 134.621 19.042 134.438 19.271L132.421 21.8823C132.284 22.0655 132.009 22.1113 131.825 22.0197C130.312 21.2867 128.341 20.8744 126.095 20.8744C124.537 20.8744 123.07 21.0577 123.07 21.7448C123.07 22.3862 124.262 22.5236 126.599 22.6611C131.504 22.9359 135.355 24.3561 135.355 27.792Z"
        fill="white"/>
    <path
        d="M138.197 25.0891C138.197 19.9582 142.185 16.843 148.419 16.843C154.654 16.843 158.642 19.9582 158.642 25.0891C158.642 30.22 154.654 33.381 148.419 33.381C142.185 33.381 138.197 30.2658 138.197 25.0891ZM152.499 25.0891C152.499 22.8443 150.803 21.6532 148.419 21.6532C146.081 21.6532 144.34 22.8443 144.34 25.0891C144.34 27.3339 146.081 28.5708 148.419 28.5708C150.803 28.5708 152.499 27.3797 152.499 25.0891Z"
        fill="white"/>
    <path
        d="M181.654 29.0744C183.762 29.0744 185 28.6162 186.329 27.7458C186.513 27.6084 186.788 27.6542 186.971 27.7916L189.447 30.3571C189.63 30.5403 189.63 30.9068 189.401 31.0443C187.246 32.7393 184.542 33.3806 181.287 33.3806C174.64 33.3806 170.744 30.2655 170.744 25.0888C170.744 19.9579 174.594 16.7969 180.783 16.7969C186.284 16.7969 190.363 19.4998 190.363 24.9055C190.363 25.3636 190.318 25.7301 190.272 26.0508C190.226 26.2799 190.042 26.4173 189.813 26.4173H176.886C177.345 28.3414 178.995 29.0744 181.654 29.0744ZM177.024 23.3479L184.587 23.3021C184.083 21.8361 182.846 21.1032 180.874 21.1032C178.903 21.1032 177.574 21.8361 177.024 23.3479Z"
        fill="white"/>
    <path
        d="M192.839 13.9109C192.839 12.1243 194.306 10.979 196.46 10.979C198.615 10.979 200.082 12.1243 200.082 13.9109C200.082 15.6976 198.615 16.8429 196.46 16.8429C194.306 16.8429 192.839 15.6976 192.839 13.9109Z"
        fill="white"/>
    <path
        d="M199.211 33.3807H193.71C193.435 33.3807 193.205 33.1517 193.205 32.8768V18.5836C193.205 18.3087 193.435 18.1255 193.71 18.1255H199.211C199.486 18.1255 199.715 18.3545 199.715 18.6294V32.9226C199.669 33.1517 199.486 33.3807 199.211 33.3807Z"
        fill="white"/>
    <path
        d="M108.538 9.60458V10.6582H111.243C111.289 10.6582 111.334 10.7041 111.334 10.7499V11.3912C111.334 11.437 111.289 11.4829 111.243 11.4829H107.576C107.53 11.4829 107.484 11.437 107.484 11.3912V7.03913C107.484 6.99332 107.53 6.94751 107.576 6.94751H111.197C111.243 6.94751 111.289 6.99332 111.289 7.03913V7.68049C111.289 7.72631 111.243 7.77212 111.197 7.77212H108.538V8.68835H110.968C111.014 8.68835 111.059 8.73416 111.059 8.77997V9.42133C111.059 9.46714 111.014 9.51295 110.968 9.51295H108.538V9.60458Z"
        fill="white"/>
    <path
        d="M116.102 11.5287L113.764 9.14646C113.535 8.91741 113.26 8.55091 113.26 8.55091H113.214V11.437C113.214 11.4829 113.168 11.5287 113.122 11.5287H112.251C112.205 11.5287 112.16 11.4829 112.16 11.437V7.03913C112.16 6.99332 112.205 6.94751 112.251 6.94751H112.939L115.277 9.32971C115.552 9.60458 115.827 9.97107 115.827 9.97107H115.873V7.03913C115.873 6.99332 115.918 6.94751 115.964 6.94751H116.835C116.881 6.94751 116.927 6.99332 116.927 7.03913V11.437C116.927 11.4829 116.881 11.5287 116.835 11.5287H116.102Z"
        fill="white"/>
    <path
        d="M117.615 7.81793C117.569 7.81793 117.523 7.77212 117.523 7.72631V7.03913C117.523 6.99332 117.569 6.94751 117.615 6.94751H121.969C122.015 6.94751 122.061 6.99332 122.061 7.03913V7.68049C122.061 7.72631 122.015 7.77212 121.969 7.77212H120.319V11.3912C120.319 11.437 120.273 11.4829 120.228 11.4829H119.357C119.311 11.4829 119.265 11.437 119.265 11.3912V7.77212H117.615V7.81793Z"
        fill="white"/>
    <path
        d="M123.757 9.60458V10.6582H126.462C126.508 10.6582 126.553 10.7041 126.553 10.7499V11.3912C126.553 11.437 126.508 11.4829 126.462 11.4829H122.795C122.749 11.4829 122.703 11.437 122.703 11.3912V7.03913C122.703 6.99332 122.749 6.94751 122.795 6.94751H126.416C126.462 6.94751 126.508 6.99332 126.508 7.03913V7.68049C126.508 7.72631 126.462 7.77212 126.416 7.77212H123.757V8.68835H126.187C126.233 8.68835 126.278 8.73416 126.278 8.77997V9.42133C126.278 9.46714 126.233 9.51295 126.187 9.51295H123.757V9.60458Z"
        fill="white"/>
    <path
        d="M127.379 7.03913C127.379 6.99332 127.425 6.94751 127.47 6.94751H129.625C130.725 6.94751 131.55 7.54306 131.55 8.55091C131.55 9.23809 131.138 9.6962 130.496 9.92526C130.496 9.92526 130.633 10.0627 130.725 10.2459L131.504 11.3912C131.55 11.437 131.55 11.4829 131.55 11.4829C131.55 11.5287 131.55 11.5287 131.504 11.5287H130.496C130.45 11.5287 130.404 11.4829 130.358 11.437L129.441 10.0627H128.433V11.3912C128.433 11.437 128.387 11.4829 128.341 11.4829H127.47C127.425 11.4829 127.379 11.437 127.379 11.3912V7.03913ZM128.433 7.81793V9.2839H129.533C130.129 9.2839 130.496 9.00903 130.496 8.55091C130.496 8.0928 130.129 7.81793 129.533 7.81793H128.433Z"
        fill="white"/>
    <path
        d="M131.871 7.81793C131.825 7.81793 131.779 7.77212 131.779 7.72631V7.03913C131.779 6.99332 131.825 6.94751 131.871 6.94751H136.226C136.272 6.94751 136.317 6.99332 136.317 7.03913V7.68049C136.317 7.72631 136.272 7.77212 136.226 7.77212H134.576V11.3912C134.576 11.437 134.53 11.4829 134.484 11.4829H133.613C133.567 11.4829 133.521 11.437 133.521 11.3912V7.77212H131.871V7.81793Z"
        fill="white"/>
    <path
        d="M139.435 10.7499H137.188L136.868 11.437C136.822 11.5287 136.776 11.5287 136.684 11.5287H135.767C135.722 11.5287 135.722 11.4829 135.722 11.4829C135.722 11.4829 135.722 11.437 135.767 11.3912L137.922 6.94751H138.701L140.856 11.3912C140.856 11.437 140.902 11.4829 140.902 11.4829C140.902 11.4829 140.902 11.5287 140.856 11.5287H139.939C139.847 11.5287 139.801 11.5287 139.756 11.437L139.435 10.7499ZM137.555 9.92526H139.068L138.655 9.05484C138.472 8.73416 138.334 8.23023 138.334 8.23023H138.289C138.289 8.23023 138.105 8.73416 137.968 9.05484L137.555 9.92526Z"
        fill="white"/>
    <path
        d="M142.552 11.437C142.552 11.4829 142.506 11.5287 142.46 11.5287H141.589C141.543 11.5287 141.497 11.4829 141.497 11.437V7.03913C141.497 6.99332 141.543 6.94751 141.589 6.94751H142.46C142.506 6.94751 142.552 6.99332 142.552 7.03913V11.437Z"
        fill="white"/>
    <path
        d="M147.594 11.5287L145.256 9.14646C145.027 8.91741 144.752 8.55091 144.752 8.55091H144.706V11.437C144.706 11.4829 144.66 11.5287 144.615 11.5287H143.744C143.698 11.5287 143.652 11.4829 143.652 11.437V7.03913C143.652 6.99332 143.698 6.94751 143.744 6.94751H144.431L146.769 9.32971C147.044 9.60458 147.319 9.97107 147.319 9.97107H147.365V7.03913C147.365 6.99332 147.411 6.94751 147.457 6.94751H148.328C148.374 6.94751 148.419 6.99332 148.419 7.03913V11.437C148.419 11.4829 148.374 11.5287 148.328 11.5287H147.594Z"
        fill="white"/>
    <path
        d="M150.528 9.60458V10.6582H153.233C153.278 10.6582 153.324 10.7041 153.324 10.7499V11.3912C153.324 11.437 153.278 11.4829 153.233 11.4829H149.565C149.519 11.4829 149.474 11.437 149.474 11.3912V7.03913C149.474 6.99332 149.519 6.94751 149.565 6.94751H153.187C153.233 6.94751 153.278 6.99332 153.278 7.03913V7.68049C153.278 7.72631 153.233 7.77212 153.187 7.77212H150.528V8.68835H152.958C153.003 8.68835 153.049 8.73416 153.049 8.77997V9.42133C153.049 9.46714 153.003 9.51295 152.958 9.51295H150.528V9.60458Z"
        fill="white"/>
    <path
        d="M154.149 7.03913C154.149 6.99332 154.195 6.94751 154.241 6.94751H156.396C157.496 6.94751 158.321 7.54306 158.321 8.55091C158.321 9.23809 157.908 9.6962 157.267 9.92526C157.267 9.92526 157.404 10.0627 157.496 10.2459L158.275 11.3912C158.321 11.437 158.321 11.4829 158.321 11.4829C158.321 11.5287 158.321 11.5287 158.275 11.5287H157.267C157.221 11.5287 157.175 11.4829 157.129 11.437L156.212 10.0627H155.204V11.3912C155.204 11.437 155.158 11.4829 155.112 11.4829H154.241C154.195 11.4829 154.149 11.437 154.149 11.3912V7.03913ZM155.204 7.81793V9.2839H156.304C156.9 9.2839 157.267 9.00903 157.267 8.55091C157.267 8.0928 156.9 7.81793 156.304 7.81793H155.204Z"
        fill="white"/>
    <line x1="91.5" y1="4.5" x2="91.5" y2="33.5" stroke="white" stroke-linecap="round"/>
    <line x1="227.5" y1="4.5" x2="227.5" y2="33.5" stroke="white" stroke-linecap="round"/>
    <path
        d="M261.697 44.4534H256.042V50.0308H253.176V36.8618H256.042V42.2069H261.697V36.8618H264.563V49.9534H261.697V44.4534Z"
        fill="white"/>
    <path
        d="M271.458 50.2636C268.669 50.2636 266.268 49.1791 266.19 46.003H269.056C269.056 47.4749 269.908 48.1721 271.535 48.1721C272.697 48.1721 274.014 47.5523 274.014 46.3129C274.014 45.3059 273.084 44.996 271.613 44.5312L270.683 44.2988C268.669 43.6791 266.5 42.827 266.5 40.5805C266.5 37.6369 269.211 36.7073 271.768 36.7073C274.324 36.7073 276.493 37.6369 276.493 40.503H273.627C273.549 39.3411 272.852 38.6439 271.535 38.6439C270.528 38.6439 269.444 39.2636 269.444 40.3481C269.444 41.2777 270.296 41.5876 272.155 42.2073L273.239 42.5171C275.486 43.2143 276.88 44.0664 276.88 46.158C276.88 49.1791 274.014 50.2636 271.458 50.2636Z"
        fill="white"/>
    <path
        d="M278.507 36.8618H283.077C284.549 36.8618 285.092 36.8618 285.634 37.0167C287.261 37.3266 288.423 38.4886 288.423 40.1153C288.423 41.7421 287.338 42.6717 285.789 43.059C287.57 43.3689 288.81 44.2984 288.81 46.3125C288.81 49.2562 285.866 49.9534 283.542 49.9534H278.352V36.8618H278.507ZM283.077 42.3618C284.317 42.3618 285.634 42.1294 285.634 40.5801C285.634 39.2632 284.472 38.8759 283.232 38.8759H281.218V42.3618H283.077ZM283.387 48.0942C284.704 48.0942 286.021 47.7844 286.021 46.1576C286.021 44.6083 284.937 44.221 283.542 44.221H281.296V48.0167H283.387V48.0942Z"
        fill="white"/>
    <path
        d="M296.324 50.2634C292.063 50.2634 290.127 47.5522 290.127 43.6015C290.127 39.6508 292.218 36.6296 296.401 36.6296C299.035 36.6296 301.592 37.7916 301.669 40.8127H298.725C298.57 39.5733 297.718 38.7987 296.479 38.7987C293.923 38.7987 293.148 41.5874 293.148 43.6015C293.148 45.693 293.923 48.0944 296.401 48.0944C297.641 48.0944 298.57 47.3972 298.88 46.0803H301.824C301.437 49.1789 299.035 50.2634 296.324 50.2634Z"
        fill="white"/>
    <path d="M291.211 32.0593L305 18.348L291.211 4.63672V32.0593Z" fill="white"/>
    <path d="M263.711 32.0595L250 18.3482L263.711 4.63696V32.0595Z" fill="white"/>
    <path d="M291.211 4.63672L277.423 18.348L263.711 4.63672H291.211Z" fill="white"/>
    <path d="M263.711 32.0594L277.423 18.3481L291.211 32.0594H263.711Z" fill="white"/>
</svg>
