<?xml version="1.0" encoding="utf-8"?>
<!-- Generator: Adobe Illustrator 22.0.0, SVG Export Plug-In . SVG Version: 6.00 Build 0)  -->
<svg version="1.1" id="Layer_1" xmlns="http://www.w3.org/2000/svg" xmlns:xlink="http://www.w3.org/1999/xlink" x="0px"
     y="0px"
     viewBox="0 0 1417.3 609.4" style="enable-background:new 0 0 1417.3 609.4;" xml:space="preserve">
<style type="text/css">
	.st0{fill:#FFFFFF;}
</style>
    <g>

		<ellipse transform="matrix(0.9998 -1.999581e-02 1.999581e-02 0.9998 -4.9906 16.6549)" class="st0" cx="830.3"
                 cy="257.9" rx="44.5" ry="44.5"/>
        <path class="st0" d="M937.5,457.5c-15.9,14.3-34.4,20.9-50.9,18.1c-16.2-2.7-29.1-11.5-41.8-28.5c-4.8-6.5-9.3-13.6-13.7-20.5
		l-1.5-2.5l-32.8-52.3c-16.4-26.1-32.8-52.2-49.3-78.2c-0.3-0.4-0.6-1-0.9-1.6v-0.2c-0.7-1.5-1.6-2.9-2.7-4.1l-0.4-0.4
		c-15.4-26.4-49.1-35.7-75.9-21c-26.6,14.5-36.5,47.9-22,74.6c0.1,0.3,0.3,0.6,0.4,0.8l134.1,214.3c15.4,27.1,49.9,36.5,76.9,21
		c8.7-4.9,16-12.2,21-20.9l64.5-103.4L937.5,457.5z"/>
        <path class="st0" d="M348.2,581.9c1.3,0,2.7,0,4-0.1c19-1.6,35.4-13.8,42.3-31.6c-80.1-64.9-92.3-182.4-27.4-262.5
		c2.8-3.5,5.8-6.9,8.9-10.2c7.2-7.6,15-14.5,23.4-20.7l-16.9-7.6l-23.7-10.8c-7.1-3.6-14.8-5.5-22.8-5.5
		c-19,0.1-36.3,10.7-44.9,27.7l-0.5,0.9l-0.9,2l-1.8-1.2l-0.9-0.6c-25.9-16.4-55.2-26.5-85.7-29.5c-6-0.6-12.1-0.9-18.1-0.9
		c-40.2-0.2-79.2,14.3-109.5,40.8c-71.8,63-81.8,171.2-22.6,246.1c29.5,36.7,72.8,59.5,119.7,63.2c4.2,0.4,8.5,0.5,13,0.5
		c35.4,0,74-11.9,86.6-26.6c3.5-42.4-2-84.8-9.1-109.9c-23.5,27-50.1,33.7-64.2,35.2c-3.5,0.4-7,0.6-10.5,0.6c-2.5,0-4.9,0-7.3-0.3
		c-19.4-1.5-37.4-10.8-49.7-25.9c-12.3-15.6-18-35.4-16.1-55.3c3.1-36.4,32-66.2,67.3-69.4c2.7-0.2,5.3-0.4,7.9-0.4
		c24.7,0,46.4,10.7,64.3,31.7s27.9,47.6,33.1,66.2c8.5,30.3,9.8,61.8,10.9,92.3v0.4c0.2,4.9,0.4,10,0.7,14.9
		C300.1,561.8,322,581.8,348.2,581.9z"/>
        <path class="st0" d="M1009.4,340.1c14.6-25,6.1-57-18.9-71.5c-25-14.6-57-6.1-71.5,18.9c-0.4,0.6-0.7,1.2-0.9,1.7
		c-0.5,0.8-45.3,73.8-81.9,132.9l0.7,1.2c4.2,6.8,8.6,13.7,13.2,19.9c11.6,15.5,23.1,23.5,37.5,25.8c2.2,0.4,4.4,0.6,6.6,0.6
		c12.7,0,26.5-6,38.7-17l14.7-13.2L1009.4,340.1z"/>
        <path class="st0" d="M725.8,78.1c0.2-29.1-23-53-52.1-53.6h-1.2c-13.7-0.1-26.9,5.3-36.7,14.9c-9.8,9.5-15.4,22.6-15.5,36.3
		c0.1,3.3,0.2,6.8,0.3,10.3c0.2,6.8,0.4,13.8,0.7,20.7c0,0,2.9,88.1,2.9,88.3l0.1,5.7c1.4,40.8,3.1,91.8-4.3,139.2
		c-8.7,56-27.8,95.7-58.7,121.4c-12.4,10.6-27.7,17.2-44,18.9c-2.2,0.1-4.4,0.3-6.6,0.3c-19.9,0-38.9-7.7-53.1-21.5
		c-14.5-13.8-22.6-32.9-22.7-52.8c0-28.8,15.1-54.3,39.4-66.6c10.5-5.2,22.1-7.9,33.8-7.9c29.3,0.4,56.7,14.2,74.4,37.4
		c7-34.2,9.8-66,9.8-111.6c-5.3-6.3-16.9-13-31-18c-17.8-6.2-36.6-9.3-55.5-9.2c-46.9-0.4-92,18.7-124.4,52.8
		c-65.2,69.6-64.4,178.1,1.8,246.7c32.8,33.8,77.5,52.4,125.8,52.4c20.3,0,40.5-3.3,59.6-9.9c58.1-19.9,101.2-65.5,128.2-135.7
		l-2.2-3.4l-54.8-87.6v-0.1l-0.1-0.2c-8.2-14.3-10.2-31.3-5.7-47.2c4.5-16,15.3-29.5,29.9-37.5c19.9-11,44.3-10.4,63.7,1.5
		c0.8-32.8,0-66.2-0.9-98.6C726.3,135.3,725.5,106.4,725.8,78.1z"/>
        <path class="st0" d="M619.2,67.6c0.4-2.7,1.1-5.3,2-7.9C620.3,62.3,619.6,64.9,619.2,67.6z"/>
        <path class="st0" d="M618.5,75.8c0.1-2.7,0.3-5.5,0.7-8.2C618.7,70.3,618.5,73,618.5,75.8c0.4,10.4,0.6,20.8,1,31.2
		C619,96.6,618.8,86.1,618.5,75.8z"/>
        <path class="st0" d="M621,59.8c0.5-1.7,1.2-3.3,1.8-4.9C622.2,56.6,621.6,58.2,621,59.8z"/>
        <path class="st0" d="M1223.2,584.6c-25.4,0-46.1-20.7-46.1-46.1v-85.3h-85.3c-25.4,0-46.1-20.7-46.1-46.1
		c0-25.4,20.7-46.1,46.1-46.1h85.3v-85.3c0-25.4,20.7-46.1,46.1-46.1s46.1,20.7,46.1,46.1v85.3h85.3c25.4,0,46.1,20.7,46.1,46.1
		c0,25.4-20.7,46.1-46.1,46.1h-85.3v85.3C1269.3,563.9,1248.6,584.6,1223.2,584.6z"/>
</g>
</svg>
