<?xml version="1.0" encoding="utf-8"?>
<!-- Generator: Adobe Illustrator 22.0.0, SVG Export Plug-In . SVG Version: 6.00 Build 0)  -->
<svg version="1.1" id="Layer_1" xmlns:serif="http://www.serif.com/"
     xmlns="http://www.w3.org/2000/svg" xmlns:xlink="http://www.w3.org/1999/xlink" x="0px" y="0px"
     viewBox="0 0 1365.7 1044.2"
     style="enable-background:new 0 0 1365.7 1044.2;" xml:space="preserve">
<style type="text/css">
	.st0{enable-background:new    ;}
	.st1{fill:#1D1D1B;}
	.st2{fill:url(#SVGID_1_);}
	.st3{fill:url(#SVGID_2_);}
	.st4{fill:url(#SVGID_3_);}
	.st5{fill:url(#SVGID_4_);}
	.st6{fill:url(#SVGID_5_);}
	.st7{fill:url(#SVGID_6_);}
</style>
    <g class="st0">
	<path class="st1" d="M161.1,717c5.5,0,10.4,1.6,10.4,1.6c0.1-8.3-1.5-11.6-8.2-11.6c-6.1,0-12,1.6-14.8,2.4
		c-1.6,0.4-2.5-0.7-2.9-2.1l-1.1-4.9c-0.4-1.7,0.5-2.6,1.7-3c0.9-0.4,8.4-3,18.2-3c16.9,0,18.5,10.3,18.5,23.5v28.1
		c0,1.3-1.2,2.5-2.5,2.5h-3.7c-1.2,0-1.7-0.5-2.2-1.8l-1.3-3.6c-2.9,2.8-8.1,6.7-16.2,6.7c-9.9,0-17-6.7-17-17.7
		C140,724.4,147.7,717,161.1,717z M159.6,742.4c5.3,0,10.3-4,11.9-6.6v-8.4c-0.8-0.5-4.5-2.1-9.2-2.1c-6.3,0-10.7,3.3-10.7,8.7
		C151.5,738.7,154.7,742.4,159.6,742.4z"/>
        <path class="st1" d="M221.9,696.3c6.7,0,11.5,2.5,12.7,2.9v-38.7c0-1.3,1.2-2.5,2.5-2.5h7.7c1.3,0,2.5,1.2,2.5,2.5v87.4
		c0,1.3-1.2,2.5-2.5,2.5h-4c-1.2,0-2-0.9-2.4-2.2l-1.1-3.8c0,0-6.3,7.4-16.8,7.4c-14,0-24.7-12.5-24.7-27.7
		C195.9,708.6,207.2,696.3,221.9,696.3z M222.1,740.4c8.1,0,11.9-6.5,12.5-7.9v-21.5c0,0-4.6-3.2-11.5-3.2c-8.8,0-15,7.3-15,16.2
		C208.1,732.9,213.7,740.4,222.1,740.4z"/>
        <path class="st1" d="M257.2,700.6c-0.8-1.7,0-3,2-3h7.8c1.3,0,2,0.7,2.4,1.5l13.7,31.2h0.1l14.3-31.2c0.7-1.5,2.1-1.5,3.6-1.5h6.1
		c2,0,2.8,1.3,2,3l-23.4,49.8c-0.3,0.7-1.1,1.3-2.2,1.3h-0.7c-1.2,0-2-0.7-2.2-1.3L257.2,700.6z"/>
        <path class="st1" d="M336.4,717c5.5,0,10.4,1.6,10.4,1.6c0.1-8.3-1.5-11.6-8.2-11.6c-6.1,0-12,1.6-14.8,2.4
		c-1.6,0.4-2.5-0.7-2.9-2.1l-1.1-4.9c-0.4-1.7,0.5-2.6,1.7-3c0.9-0.4,8.4-3,18.2-3c16.9,0,18.5,10.3,18.5,23.5v28.1
		c0,1.3-1.2,2.5-2.5,2.5h-3.7c-1.2,0-1.7-0.5-2.2-1.8l-1.3-3.6c-2.9,2.8-8.1,6.7-16.2,6.7c-9.9,0-17-6.7-17-17.7
		C315.3,724.4,323,717,336.4,717z M334.8,742.4c5.3,0,10.3-4,11.9-6.6v-8.4c-0.8-0.5-4.5-2.1-9.2-2.1c-6.3,0-10.7,3.3-10.7,8.7
		C326.8,738.7,330,742.4,334.8,742.4z"/>
        <path class="st1" d="M375,700.1c0-1.3,1.2-2.5,2.5-2.5h3.8c1.1,0,1.8,0.7,2.1,1.6l1.6,4.5c0.9-1.1,7.9-7.4,18.5-7.4
		c16.1,0,22,11.4,22,25.1v26.5c0,1.3-1.2,2.5-2.5,2.5h-7.5c-1.5,0-2.5-1.2-2.5-2.5v-27.1c0-8.4-4.1-13.1-11-13.1
		c-8.3,0-14,6.1-14.7,7.9v32.2c0,1.7-0.8,2.5-3,2.5h-6.9c-1.3,0-2.5-1.2-2.5-2.5V700.1z"/>
        <path class="st1" d="M445.1,708.6h-5.5c-1.5,0-2.5-1.2-2.5-2.5v-5.9c0-1.5,1.1-2.5,2.5-2.5h5.5V683c0-1.3,1.2-2.5,2.5-2.5l7.5-0.1
		c1.3,0,2.4,1.2,2.4,2.5v14.8h13.5c1.5,0,2.5,1.1,2.5,2.5v5.9c0,1.3-1.1,2.5-2.5,2.5h-13.5v26.1c0,4.5,1.7,5.3,4.2,5.3
		c2.8,0,6.5-1.6,8.1-2.4c1.7-0.8,2.5,0,3,1.2l2.4,5.8c0.7,1.5,0.1,2.5-1.2,3.2c-1.3,0.8-9.1,4-15.4,4c-10.4,0-13.5-6.3-13.5-15.7
		V708.6z"/>
        <path class="st1" d="M504.6,717c5.5,0,10.4,1.6,10.4,1.6c0.1-8.3-1.5-11.6-8.2-11.6c-6.1,0-12,1.6-14.8,2.4
		c-1.6,0.4-2.5-0.7-2.9-2.1l-1.1-4.9c-0.4-1.7,0.5-2.6,1.7-3c0.9-0.4,8.4-3,18.2-3c16.9,0,18.5,10.3,18.5,23.5v28.1
		c0,1.3-1.2,2.5-2.5,2.5h-3.7c-1.2,0-1.7-0.5-2.2-1.8l-1.3-3.6c-2.9,2.8-8.1,6.7-16.2,6.7c-9.9,0-17-6.7-17-17.7
		C483.5,724.4,491.1,717,504.6,717z M503,742.4c5.3,0,10.3-4,11.9-6.6v-8.4c-0.8-0.5-4.5-2.1-9.2-2.1c-6.3,0-10.7,3.3-10.7,8.7
		C495,738.7,498.1,742.4,503,742.4z"/>
        <path class="st1" d="M547.2,732.2c0,0-4.1-4.9-4.1-12.8c0-12.3,9.2-23.1,22.7-23.1h23.1c1.5,0,2.5,1.1,2.5,2.5v3.3
		c0,0.9-0.5,2.1-1.5,2.2l-7.3,2c0,0,5.7,4.2,5.7,14.1c0,11.2-8.7,21.5-22.4,21.5c-6.7,0-10.4-2.1-11.5-2.1c-0.9,0-5.4,2.2-5.4,6.5
		c0,3,2.4,5.4,6.3,5.4h18c11.5,0,20.7,6.2,20.7,17.7c0,11.6-10.6,21.9-28.1,21.9c-18.6,0-26.1-9.5-26.1-18.1
		c0-7.9,6.5-11.6,7.8-12.4v-0.4c-2.8-0.8-9.8-4.4-9.8-13.2C537.9,737.1,547.2,732.2,547.2,732.2z M565.8,780.5c8.1,0,15-4.1,15-10.4
		c0-2.1-1.3-7.5-9.9-7.5c-3.8,0-7.8,0-11.6,0.3c-0.8,0.3-7.3,2.4-7.3,8.3C552.1,776.5,557.8,780.5,565.8,780.5z M577.2,719.7
		c0-7.1-4.5-12.1-11.1-12.1c-6.7,0-11.6,5-11.6,12.1s4.9,12.1,11.6,12.1C572.7,731.8,577.2,726.8,577.2,719.7z"/>
        <path class="st1" d="M626.4,696.3c13.7,0,24.3,10.3,24.3,24.4c0,0.9-0.1,2.6-0.3,3.6c-0.1,1.3-1.2,2.2-2.4,2.2h-35.9
		c0.4,7.1,6.6,14.1,15.2,14.1c4.8,0,9.1-2.1,11.7-3.8c1.6-0.9,2.5-1.5,3.6-0.1l3.7,5c0.9,1.1,1.3,2.1-0.3,3.4
		c-3.8,3.3-10.7,6.6-19.5,6.6c-16,0-26.5-12.5-26.5-27.7C600,709.1,610.6,696.3,626.4,696.3z M638.4,718.2
		c-0.4-6.3-5.7-11.7-12.1-11.7c-7.1,0-12.7,5.1-13.5,11.7H638.4z"/>
        <path class="st1" d="M705.1,787.5c0,1.5-0.9,2.5-2.8,2.5h-7.4c-1.3,0-2.5-1.2-2.5-2.5v-87.4c0-1.3,1.2-2.5,2.5-2.5h4
		c1.1,0,1.7,0.5,2.2,1.7l1.3,3.4c0.9-0.9,6.3-6.5,16.1-6.5c14.5,0,25.2,12.7,25.2,27.9c0,15.4-11.4,27.6-25.7,27.6
		c-6.9,0-12-3-12.9-3.6V787.5z M716.5,740.4c8.7,0,15-7.3,15-16.2c0-8.8-5.5-16.4-14.5-16.4c-7.7,0-11.6,6.1-12.1,7.7v21.1
		C704.8,736.5,709.5,740.4,716.5,740.4z"/>
        <path class="st1" d="M757.1,660.5c0-1.3,1.2-2.5,2.5-2.5h7.5c1.3,0,2.5,1.2,2.5,2.5v87.4c0,1.3-1.2,2.5-2.5,2.5h-7.5
		c-1.3,0-2.5-1.2-2.5-2.5V660.5z"/>
        <path class="st1" d="M786,700.1c0-1.3,1.2-2.5,2.5-2.5h7.5c1.3,0,2.5,1.2,2.5,2.5v27.1c0,8.6,4.1,13.2,10.8,13.2
		c7.8,0,12.7-6.3,13.1-8.7v-31.5c0-2.1,1.1-2.5,2.9-2.5h6.9c1.3,0,2.5,1.2,2.5,2.5v47.8c0,1.3-1.2,2.5-2.5,2.5h-3.7
		c-1.3,0-2-0.9-2.4-2.1l-1.3-3.8c-1.2,1.1-6.7,7.3-17.4,7.3c-15.8,0-21.4-11.2-21.4-24.9V700.1z"/>
        <path class="st1" d="M848.7,743.5l2.8-5.1c0.5-1.1,2-1.5,3.3-0.7c0,0,5.8,3.4,12.3,3.4c4,0,6.5-1.6,6.5-4.5c0-3.6-2.9-5.3-10.2-8.6
		c-8.2-3.6-15-8.6-15-17.3c0-6.6,5.4-14.5,18.1-14.5c7.4,0,12.9,2.4,15.6,4.1c1.2,0.8,1.8,2.5,1.1,3.8l-2.4,4.5
		c-0.7,1.2-2.4,1.6-3.4,1.1c0,0-5.8-2.8-10.8-2.8c-4.5,0-5.9,2-5.9,4c0,3.4,3.3,4.9,8.4,7.1c9.6,4.2,17.6,8.3,17.6,18.2
		c0,8.2-7.8,15.4-19.5,15.4c-8.8,0-14.7-3.2-17.4-5.4C848.7,745.8,848.2,744.6,848.7,743.5z"/>
</g>
    <g class="st0">
	<path class="st1" d="M156.5,907.5c0,1.5-0.9,2.5-2.8,2.5h-7.4c-1.3,0-2.5-1.2-2.5-2.5v-87.4c0-1.3,1.2-2.5,2.5-2.5h4
		c1.1,0,1.7,0.5,2.2,1.7l1.3,3.4c0.9-0.9,6.3-6.5,16.1-6.5c14.5,0,25.2,12.7,25.2,27.9c0,15.4-11.4,27.6-25.7,27.6
		c-6.9,0-12-3-12.9-3.6V907.5z M167.9,860.4c8.7,0,15-7.3,15-16.2c0-8.8-5.5-16.4-14.5-16.4c-7.7,0-11.6,6.1-12.1,7.7v21.1
		C156.3,856.5,160.9,860.4,167.9,860.4z"/>
        <path class="st1" d="M208.5,820.1c0-1.3,1.2-2.5,2.5-2.5h3.8c0.9,0,2,0.8,2.2,1.8l1.5,4.5c0.9-1.3,5.8-7.7,15.4-7.7
		c5,0,11.1,1.3,9.6,4.9l-3.2,6.5c-0.7,1.5-2,1.7-3.2,1.2c-0.8-0.4-2.8-0.9-4.5-0.9c-7.7,0-11.4,5.5-11.9,6.5v33.5
		c0,2.2-1.5,2.5-3.6,2.5H211c-1.3,0-2.5-1.2-2.5-2.5V820.1z"/>
        <path class="st1" d="M275.2,816.3c14.8,0,26.7,12.7,26.7,27.6c0,15.2-11.9,27.9-26.7,27.9c-14.8,0-26.7-12.7-26.7-27.9
		C248.5,829,260.4,816.3,275.2,816.3z M275.2,860.4c8.3,0,14.9-7.4,14.9-16.5c0-8.8-6.6-16.1-14.9-16.1c-8.3,0-14.9,7.3-14.9,16.1
		C260.3,853,266.9,860.4,275.2,860.4z"/>
        <path class="st1" d="M319.1,852.2c0,0-4.1-4.9-4.1-12.8c0-12.3,9.2-23.1,22.7-23.1h23.1c1.5,0,2.5,1.1,2.5,2.5v3.3
		c0,0.9-0.5,2.1-1.5,2.2l-7.3,2c0,0,5.7,4.2,5.7,14.1c0,11.2-8.7,21.5-22.4,21.5c-6.7,0-10.4-2.1-11.5-2.1c-0.9,0-5.4,2.2-5.4,6.5
		c0,3,2.4,5.4,6.3,5.4h18c11.5,0,20.7,6.2,20.7,17.7c0,11.6-10.6,21.9-28.1,21.9c-18.6,0-26.1-9.5-26.1-18.1
		c0-7.9,6.5-11.6,7.8-12.4v-0.4c-2.8-0.8-9.8-4.4-9.8-13.2C309.8,857.1,319.1,852.2,319.1,852.2z M337.8,900.5c8.1,0,15-4.1,15-10.4
		c0-2.1-1.3-7.5-9.9-7.5c-3.8,0-7.8,0-11.6,0.3c-0.8,0.3-7.3,2.4-7.3,8.3C324,896.5,329.7,900.5,337.8,900.5z M349.1,839.7
		c0-7.1-4.5-12.1-11.1-12.1c-6.7,0-11.6,5-11.6,12.1s4.9,12.1,11.6,12.1C344.6,851.8,349.1,846.8,349.1,839.7z"/>
        <path class="st1" d="M375.8,820.1c0-1.3,1.2-2.5,2.5-2.5h3.8c0.9,0,2,0.8,2.2,1.8l1.5,4.5c0.9-1.3,5.8-7.7,15.4-7.7
		c5,0,11.1,1.3,9.6,4.9l-3.2,6.5c-0.7,1.5-2,1.7-3.2,1.2c-0.8-0.4-2.8-0.9-4.5-0.9c-7.7,0-11.4,5.5-11.9,6.5v33.5
		c0,2.2-1.5,2.5-3.6,2.5h-6.3c-1.3,0-2.5-1.2-2.5-2.5V820.1z"/>
        <path class="st1" d="M437.4,837c5.5,0,10.4,1.6,10.4,1.6c0.1-8.3-1.5-11.6-8.2-11.6c-6.1,0-12,1.6-14.8,2.4
		c-1.6,0.4-2.5-0.7-2.9-2.1l-1.1-4.9c-0.4-1.7,0.5-2.6,1.7-3c0.9-0.4,8.4-3,18.2-3c16.9,0,18.5,10.3,18.5,23.5v28.1
		c0,1.3-1.2,2.5-2.5,2.5h-3.7c-1.2,0-1.7-0.5-2.2-1.8l-1.3-3.6c-2.9,2.8-8.1,6.7-16.2,6.7c-9.9,0-17-6.7-17-17.7
		C416.3,844.4,423.9,837,437.4,837z M435.8,862.4c5.3,0,10.3-4,11.9-6.6v-8.4c-0.8-0.5-4.5-2.1-9.2-2.1c-6.3,0-10.7,3.3-10.7,8.7
		C427.8,858.7,430.9,862.4,435.8,862.4z"/>
        <path class="st1" d="M476,820.1c0-1.3,1.2-2.5,2.5-2.5h3.7c1.2,0,1.8,0.7,2.2,1.6l1.5,4.5c1.2-1.2,7.3-7.4,17.4-7.4
		c7.7,0,13.2,3,17,8.4c1.5-1.5,9.1-8.4,19.1-8.4c16.1,0,21.8,11.4,21.8,25.1v26.5c0,1.3-1.1,2.5-2.5,2.5h-7.4
		c-1.5,0-2.5-1.2-2.5-2.5v-27.1c0-8.3-3.8-13.1-11-13.1c-8.1,0-12.7,5.7-13.6,6.5c0.3,1.2,0.4,3.7,0.4,6.3v27.3
		c0,1.3-1.2,2.5-2.5,2.5h-7c-1.5,0-2.5-1.2-2.5-2.5v-27.1c0-8.4-3.8-13.1-11.2-13.1c-7.9,0-12.4,6.2-13.1,7.9v32.2
		c0,1.3-1.2,2.5-2.5,2.5h-7.4c-1.3,0-2.5-1.2-2.5-2.5V820.1z"/>
        <path class="st1" d="M577.7,820.1c0-1.3,1.2-2.5,2.5-2.5h3.7c1.2,0,1.8,0.7,2.2,1.6l1.5,4.5c1.2-1.2,7.3-7.4,17.4-7.4
		c7.7,0,13.2,3,17,8.4c1.5-1.5,9.1-8.4,19.1-8.4c16.1,0,21.8,11.4,21.8,25.1v26.5c0,1.3-1.1,2.5-2.5,2.5h-7.4
		c-1.5,0-2.5-1.2-2.5-2.5v-27.1c0-8.3-3.8-13.1-11-13.1c-8.1,0-12.7,5.7-13.6,6.5c0.3,1.2,0.4,3.7,0.4,6.3v27.3
		c0,1.3-1.2,2.5-2.5,2.5h-7c-1.5,0-2.5-1.2-2.5-2.5v-27.1c0-8.4-3.8-13.1-11.2-13.1c-7.9,0-12.4,6.2-13.1,7.9v32.2
		c0,1.3-1.2,2.5-2.5,2.5h-7.4c-1.3,0-2.5-1.2-2.5-2.5V820.1z"/>
        <path class="st1" d="M702.1,816.3c13.7,0,24.3,10.3,24.3,24.4c0,0.9-0.1,2.6-0.3,3.6c-0.1,1.3-1.2,2.2-2.4,2.2h-35.9
		c0.4,7.1,6.6,14.1,15.2,14.1c4.8,0,9.1-2.1,11.7-3.8c1.6-0.9,2.5-1.5,3.6-0.1l3.7,5c0.9,1.1,1.3,2.1-0.3,3.4
		c-3.8,3.3-10.7,6.6-19.5,6.6c-16,0-26.5-12.5-26.5-27.7C675.7,829.1,686.2,816.3,702.1,816.3z M714.1,838.2
		c-0.4-6.3-5.7-11.7-12.1-11.7c-7.1,0-12.7,5.1-13.5,11.7H714.1z"/>
</g>
    <g>

		<linearGradient id="SVGID_1_" gradientUnits="userSpaceOnUse" x1="115.3081" y1="176.8886" x2="516.9"
                        y2="176.8886" gradientTransform="matrix(1 0 0 1 0 276)">
		<stop offset="0.4838" style="stop-color:#DAB75C"/>
            <stop offset="0.7225" style="stop-color:#DCB95E"/>
            <stop offset="0.8434" style="stop-color:#E4C163"/>
            <stop offset="0.9375" style="stop-color:#F1CE6C"/>
            <stop offset="1" style="stop-color:#FFDB75"/>
	</linearGradient>
        <path class="st2" d="M425.8,302.4c-24.4-12.4-52.4-1.3-63.4,20.6c-23.1-14.6-49.7-23.7-77-26.4c-40.2-4-81.3,6.6-115,35.8
		c-31.6,27.3-51,65.3-54.5,106.8c-3.5,41.6,8.6,82,34.2,113.7c26.5,32.9,64.8,53,107.8,56.6c37.5,3.2,79.1-9.8,90.9-24.5
		c3.4-39.5-2.3-81.3-9.5-103.2c-22.7,28.4-49.3,32.8-58.2,33.8c-5.2,0.6-10.3,0.7-15.2,0.2c-34.9-2.9-59-32.5-55.9-68.8
		c2.6-30.1,26.5-56,57.2-58.7c50.6-4.5,78.6,41.7,90.6,84.1c8.7,30.7,8.7,62.6,10.2,94.2c2.4,25.9,25.3,45.2,51.2,43.1
		c25.9-2.1,45.1-24.8,42.7-50.8c0,0-4.2-98.2-7.1-163c0,0-2.5-61.9,62.1-52.6C516.7,343.4,425.8,302.4,425.8,302.4z"/>
        <g transform="matrix(48.8096,34.1769,34.1769,-48.8096,384.659,98.5882)">

			<linearGradient id="SVGID_2_" gradientUnits="userSpaceOnUse" x1="2.6651" y1="-14.983" x2="2.6868"
                            y2="-14.983"
                            gradientTransform="matrix(-38907660 32647234 32647234 38907660 592846848 495943328)">
			<stop offset="0" style="stop-color:#FFDC7E"/>
                <stop offset="0.52" style="stop-color:#F6D468"/>
                <stop offset="1" style="stop-color:#E1BE63"/>
		</linearGradient>
            <path class="st3" d="M10.3,4.5C10.1,4.3,10,4,10.2,3.7c0.2-0.2,0.5-0.3,0.8-0.1l2.9,2c0.2,0.2,0.3,0.5,0.1,0.8
			c-0.2,0.2-0.5,0.3-0.8,0.1L10.3,4.5z"/>
	</g>
        <g transform="matrix(38.237,26.7739,26.7739,-38.237,389.945,102.29)">

			<linearGradient id="SVGID_3_" gradientUnits="userSpaceOnUse" x1="3.3273" y1="-19.1915" x2="3.4383"
                            y2="-19.1915"
                            gradientTransform="matrix(-14653810 12295898 12295898 14653810 284734528 240316256)">
			<stop offset="0" style="stop-color:#FFDC7E"/>
                <stop offset="0.52" style="stop-color:#F6D36C"/>
                <stop offset="1" style="stop-color:#E1BE63"/>
		</linearGradient>
            <path class="st4" d="M13.4,7.9L16,4.2c0.3-0.4,0.7-0.4,1-0.2c0.3,0.2,0.4,0.7,0.2,1l-2.6,3.7c-0.2,0.3-0.7,0.4-1,0.2
			C13.3,8.6,13.2,8.2,13.4,7.9z"/>
	</g>
        <g transform="matrix(1,0,0,1,308.161,151.561)">

			<linearGradient id="SVGID_4_" gradientUnits="userSpaceOnUse" x1="-2460.3152" y1="-1093.7078" x2="-2459.3171"
                            y2="-1093.7078"
                            gradientTransform="matrix(240.2233 177.3987 -177.3987 240.2233 397187.0312 699326.875)">
			<stop offset="0" style="stop-color:#DAB75C"/>
                <stop offset="0.34" style="stop-color:#F6D36F"/>
                <stop offset="0.68" style="stop-color:#FFDB75"/>
                <stop offset="1" style="stop-color:#DAB75C"/>
		</linearGradient>
            <path class="st5" d="M432.2,186.1c1.6-53.8-2.3-108.3-1.7-161.8c0.3-25.9-20.5-47.2-46.4-47.8c-26-0.6-47.3,19.9-47.6,45.7
			c0.3,9,0.5,17.9,0.9,26.8c0,0,2.5,75.9,2.5,76c2.3,70.9,7.3,177.3-53.4,227.8c-10.5,8.8-23.3,14.5-36.9,15.7
			c-36.3,3.2-69-25.5-69-62.2c0-23.3,12-45.1,33-55.8c32.2-16.3,74-0.6,93.1,28c7.1-33.2,9.3-62.3,9.3-100.7
			c-9-11.3-39.8-24.5-76.1-24.5c-41.6,0-80,16.3-108.2,45.9c-27.1,28.5-42.1,66.6-42.1,107c0,40.3,15.5,78.6,43.7,107.5
			c41.8,43,104.9,56.2,161.3,36.9C401.1,414.3,429.3,284.7,432.2,186.1"/>
	</g>

        <linearGradient id="SVGID_5_" gradientUnits="userSpaceOnUse" x1="659.1157" y1="194.0855" x2="918.4"
                        y2="194.0855" gradientTransform="matrix(1 0 0 1 0 276)">
		<stop offset="0" style="stop-color:#FFDC7E"/>
            <stop offset="0.2651" style="stop-color:#FFDC7E"/>
	</linearGradient>
        <path class="st6" d="M836.5,492.4c-4.7-6.3-8.9-13.1-13.2-19.9c-9.5-15.1-19-30.1-28.6-45.2c-14.3-22.5-28.5-45.1-42.8-67.6
		c-0.9-1.5-1.9-4.1-3.3-5.2c-12.9-22.7-42-30.8-65-18.1c-23,12.7-31.3,41.3-18.4,63.9l116.6,185.4c18.5,32.6,65.6,31.6,83.6,0
		l53-84.2c-12.2,10.8-28.5,18.6-45.1,15.9C856.7,514.6,845.7,504.6,836.5,492.4z"/>

        <linearGradient id="SVGID_6_" gradientUnits="userSpaceOnUse" x1="824.8" y1="148.0946" x2="987.8499"
                        y2="148.0946" gradientTransform="matrix(1 0 0 1 0 276)">
		<stop offset="0" style="stop-color:#FFDC7E"/>
            <stop offset="0.2651" style="stop-color:#FFDC7E"/>
	</linearGradient>
        <path class="st7" d="M963.7,336.2c-22.7-12.7-51.4-4.5-64.2,18.1c0,0-42,68-74.7,120.6c3.8,6,7.5,12,11.7,17.5
		c9.2,12.2,20.2,22.2,36.9,25c16.6,2.8,32.8-5,45-15.8l63.4-101.4C994.6,377.5,986.4,348.9,963.7,336.2z"/>
</g>
</svg>
