<?xml version="1.0" encoding="utf-8"?>
<!-- Generator: Adobe Illustrator 22.0.0, SVG Export Plug-In . SVG Version: 6.00 Build 0)  -->
<svg version="1.1" id="Layer_1" xmlns:serif="http://www.serif.com/"
     xmlns="http://www.w3.org/2000/svg" xmlns:xlink="http://www.w3.org/1999/xlink" x="0px" y="0px"
     viewBox="0 0 1253.7 596.2"
     style="enable-background:new 0 0 1253.7 596.2;" xml:space="preserve">
<style type="text/css">
	.st0{fill:url(#SVGID_1_);}
	.st1{fill:url(#SVGID_2_);}
	.st2{fill:url(#SVGID_3_);}
	.st3{fill:url(#SVGID_4_);}
	.st4{fill:url(#SVGID_5_);}
	.st5{fill:url(#SVGID_6_);}
</style>
    <g>

		<linearGradient id="SVGID_1_" gradientUnits="userSpaceOnUse" x1="59.3081" y1="515.1115" x2="460.9" y2="515.1115"
                        gradientTransform="matrix(1 0 0 -1 0 892)">
		<stop offset="0.4838" style="stop-color:#DAB75C"/>
            <stop offset="0.7225" style="stop-color:#DCB95E"/>
            <stop offset="0.8434" style="stop-color:#E4C163"/>
            <stop offset="0.9375" style="stop-color:#F1CE6C"/>
            <stop offset="1" style="stop-color:#FFDB75"/>
	</linearGradient>
        <path class="st0" d="M369.8,226.4c-24.4-12.4-52.4-1.3-63.4,20.6c-23.1-14.6-49.7-23.7-77-26.4c-40.2-4-81.3,6.6-115,35.8
		c-31.6,27.3-51,65.3-54.5,106.8c-3.5,41.6,8.6,82,34.2,113.7c26.5,32.9,64.8,53,107.8,56.6c37.5,3.2,79.1-9.8,90.9-24.5
		c3.4-39.5-2.3-81.3-9.5-103.2c-22.7,28.4-49.3,32.8-58.2,33.8c-5.2,0.6-10.3,0.7-15.2,0.2c-34.9-2.9-59-32.5-55.9-68.8
		c2.6-30.1,26.5-56,57.2-58.7c50.6-4.5,78.6,41.7,90.6,84.1c8.7,30.7,8.7,62.6,10.2,94.2c2.4,25.9,25.3,45.2,51.2,43.1
		c25.9-2.1,45.1-24.8,42.7-50.8c0,0-4.2-98.2-7.1-163c0,0-2.5-61.9,62.1-52.6C460.7,267.4,369.8,226.4,369.8,226.4z"/>
        <g transform="matrix(48.8096,34.1769,34.1769,-48.8096,384.659,98.5882)">

			<linearGradient id="SVGID_2_" gradientUnits="userSpaceOnUse" x1="1.17" y1="-14.4815" x2="2.168"
                            y2="-14.4815"
                            gradientTransform="matrix(-220616.8125 823346.875 823346.875 220616.8125 12181448 2231570.75)">
			<stop offset="0" style="stop-color:#FFDC7E"/>
                <stop offset="0.52" style="stop-color:#F6D468"/>
                <stop offset="1" style="stop-color:#E1BE63"/>
		</linearGradient>
            <path class="st1" d="M8.8,5C8.6,4.8,8.5,4.5,8.7,4.2C8.9,4,9.2,3.9,9.5,4.1l2.9,2c0.2,0.2,0.3,0.5,0.1,0.8C12.3,7.1,12,7.2,11.7,7
			L8.8,5z"/>
	</g>
        <g transform="matrix(38.237,26.7739,26.7739,-38.237,389.945,102.29)">

			<linearGradient id="SVGID_3_" gradientUnits="userSpaceOnUse" x1="1.4237" y1="-18.5549" x2="2.4216"
                            y2="-18.5549"
                            gradientTransform="matrix(-106066.1641 395839.1875 395839.1875 106066.1641 7495760.5 1404498.25)">
			<stop offset="0" style="stop-color:#FFDC7E"/>
                <stop offset="0.52" style="stop-color:#F6D36C"/>
                <stop offset="1" style="stop-color:#E1BE63"/>
		</linearGradient>
            <path class="st2" d="M11.5,8.5l2.6-3.7c0.3-0.4,0.7-0.4,1-0.2c0.3,0.2,0.4,0.7,0.2,1l-2.6,3.7c-0.2,0.3-0.7,0.4-1,0.2
			C11.4,9.2,11.3,8.8,11.5,8.5z"/>
	</g>
        <g transform="matrix(1,0,0,1,308.161,151.561)">

			<linearGradient id="SVGID_4_" gradientUnits="userSpaceOnUse" x1="-2207.8796" y1="1771.775" x2="-2206.8816"
                            y2="1771.775"
                            gradientTransform="matrix(240.2233 177.3987 177.3987 -240.2233 216201.9062 817356.6875)">
			<stop offset="0" style="stop-color:#DAB75C"/>
                <stop offset="0.34" style="stop-color:#F6D36F"/>
                <stop offset="0.68" style="stop-color:#FFDB75"/>
                <stop offset="1" style="stop-color:#DAB75C"/>
		</linearGradient>
            <path class="st3" d="M376.2,110.1c1.6-53.8-2.3-108.3-1.7-161.8c0.3-25.9-20.5-47.2-46.4-47.8c-26-0.6-47.3,19.9-47.6,45.7
			c0.3,9,0.5,17.9,0.9,26.8c0,0,2.5,75.9,2.5,76c2.3,70.9,7.3,177.3-53.4,227.8c-10.5,8.8-23.3,14.5-36.9,15.7
			c-36.3,3.2-69-25.5-69-62.2c0-23.3,12-45.1,33-55.8c32.2-16.3,74-0.6,93.1,28c7.1-33.2,9.3-62.3,9.3-100.7
			c-9-11.3-39.8-24.5-76.1-24.5c-41.6,0-80,16.3-108.2,45.9c-27.1,28.5-42.1,66.6-42.1,107c0,40.3,15.5,78.6,43.7,107.5
			c41.8,43,104.9,56.2,161.3,36.9C345.1,338.3,373.3,208.7,376.2,110.1"/>
	</g>

        <linearGradient id="SVGID_5_" gradientUnits="userSpaceOnUse" x1="603.1157" y1="497.9145" x2="862.4"
                        y2="497.9145" gradientTransform="matrix(1 0 0 -1 0 892)">
		<stop offset="0" style="stop-color:#FFDC7E"/>
            <stop offset="0.2651" style="stop-color:#FFDC7E"/>
	</linearGradient>
        <path class="st4" d="M780.5,416.4c-4.7-6.3-8.9-13.1-13.2-19.9c-9.5-15.1-19-30.1-28.6-45.2c-14.3-22.5-28.5-45.1-42.8-67.6
		c-0.9-1.5-1.9-4.1-3.3-5.2c-12.9-22.7-42-30.8-65-18.1c-23,12.7-31.3,41.3-18.4,63.9l116.6,185.4c18.5,32.6,65.6,31.6,83.6,0
		l53-84.2c-12.2,10.8-28.5,18.6-45.1,15.9C800.7,438.6,789.7,428.6,780.5,416.4z"/>

        <linearGradient id="SVGID_6_" gradientUnits="userSpaceOnUse" x1="768.8" y1="543.9055" x2="931.8499"
                        y2="543.9055" gradientTransform="matrix(1 0 0 -1 0 892)">
		<stop offset="0" style="stop-color:#FFDC7E"/>
            <stop offset="0.2651" style="stop-color:#FFDC7E"/>
	</linearGradient>
        <path class="st5" d="M907.7,260.2c-22.7-12.7-51.4-4.5-64.2,18.1c0,0-42,68-74.7,120.6c3.8,6,7.5,12,11.7,17.5
		c9.2,12.2,20.2,22.2,36.9,25c16.6,2.8,32.8-5,45-15.8l63.4-101.4C938.6,301.5,930.4,272.9,907.7,260.2z"/>
</g>
</svg>
