<svg width="24" height="25" viewBox="0 0 24 25" fill="none" xmlns="http://www.w3.org/2000/svg">
    <path
        d="M18.7099 7.70998C18.617 7.61625 18.5064 7.54186 18.3845 7.49109C18.2627 7.44032 18.132 7.41418 17.9999 7.41418C17.8679 7.41418 17.7372 7.44032 17.6154 7.49109C17.4935 7.54186 17.3829 7.61625 17.29 7.70998L9.83995 15.17L6.70995 12.03C6.61343 11.9367 6.49949 11.8634 6.37463 11.8142C6.24978 11.765 6.11645 11.7409 5.98227 11.7432C5.84809 11.7455 5.71568 11.7743 5.5926 11.8278C5.46953 11.8812 5.35819 11.9585 5.26495 12.055C5.17171 12.1515 5.0984 12.2654 5.04919 12.3903C4.99999 12.5152 4.97586 12.6485 4.97818 12.7827C4.9805 12.9168 5.00923 13.0493 5.06272 13.1723C5.11622 13.2954 5.19343 13.4067 5.28995 13.5L9.12995 17.34C9.22291 17.4337 9.33351 17.5081 9.45537 17.5589C9.57723 17.6096 9.70794 17.6358 9.83995 17.6358C9.97196 17.6358 10.1027 17.6096 10.2245 17.5589C10.3464 17.5081 10.457 17.4337 10.55 17.34L18.7099 9.17998C18.8115 9.08634 18.8925 8.97269 18.9479 8.84619C19.0033 8.71969 19.0319 8.58308 19.0319 8.44498C19.0319 8.30688 19.0033 8.17028 18.9479 8.04378C18.8925 7.91728 18.8115 7.80363 18.7099 7.70998Z"
        fill="white"/>
</svg>
