<svg width="33" height="32" viewBox="0 0 33 32" fill="none" xmlns="http://www.w3.org/2000/svg">
    <path
        d="M4.33337 7H28.3334V24C28.3334 24.2652 28.228 24.5196 28.0405 24.7071C27.8529 24.8946 27.5986 25 27.3334 25H5.33337C5.06816 25 4.8138 24.8946 4.62627 24.7071C4.43873 24.5196 4.33337 24.2652 4.33337 24V7Z"
        fill="white"/>
    <mask id="path-2-outside-1_777:29" maskUnits="userSpaceOnUse" x="2.33337" y="5" width="28" height="15" fill="black">
        <rect fill="white" x="2.33337" y="5" width="28" height="15"/>
        <path d="M28.3334 7L16.3334 18L4.33337 7"/>
    </mask>
    <path
        d="M29.6848 8.47431C30.4991 7.72792 30.5541 6.46279 29.8077 5.64855C29.0613 4.83431 27.7962 4.77931 26.9819 5.52569L29.6848 8.47431ZM16.3334 18L14.9819 19.4743C15.7466 20.1752 16.9202 20.1752 17.6848 19.4743L16.3334 18ZM5.68482 5.52569C4.87059 4.77931 3.60545 4.83431 2.85907 5.64855C2.11268 6.46279 2.16769 7.72792 2.98192 8.47431L5.68482 5.52569ZM26.9819 5.52569L14.9819 16.5257L17.6848 19.4743L29.6848 8.47431L26.9819 5.52569ZM17.6848 16.5257L5.68482 5.52569L2.98192 8.47431L14.9819 19.4743L17.6848 16.5257Z"
        fill="#E5BD60" mask="url(#path-2-outside-1_777:29)"/>
</svg>
