<?xml version="1.0" encoding="UTF-8" standalone="no"?>
<svg
    width="25"
    height="18"
    viewBox="0 0 25 18"
    fill="none"
    version="1.1"
    id="svg11"
    sodipodi:docname="email-red.svg"
    xml:space="preserve"
    inkscape:version="1.2.2 (732a01da63, 2022-12-09)"
    xmlns:inkscape="http://www.inkscape.org/namespaces/inkscape"
    xmlns:sodipodi="http://sodipodi.sourceforge.net/DTD/sodipodi-0.dtd"
    xmlns="http://www.w3.org/2000/svg"
    xmlns:svg="http://www.w3.org/2000/svg"><defs
     id="defs15" />
    <sodipodi:namedview
        id="namedview13"
        pagecolor="#ffffff"
        bordercolor="#000000"
        borderopacity="0.25"
        inkscape:showpageshadow="2"
        inkscape:pageopacity="0.0"
        inkscape:pagecheckerboard="0"
        inkscape:deskcolor="#d1d1d1"
        showgrid="false"
        inkscape:zoom="8.3674303"
        inkscape:cx="21.033937"
        inkscape:cy="13.086455"
        inkscape:window-width="1920"
        inkscape:window-height="1013"
        inkscape:window-x="-9"
        inkscape:window-y="-9"
        inkscape:window-maximized="1"
        inkscape:current-layer="svg11"/>
    <path
        d="M0.333496 0H24.3335V17C24.3335 17.2652 24.2281 17.5196 24.0406 17.7071C23.8531 17.8946 23.5987 18 23.3335 18H1.3335C1.06828 18 0.813926 17.8946 0.62639 17.7071C0.438853 17.5196 0.333496 17.2652 0.333496 17V0Z"
        fill="white"
        id="path9"/>
    <g
        style="fill:none"
        id="g135"
        transform="translate(-1.8164844,-1.6069884)"><path
       d="M 27.6849,3.47431 C 28.4992,2.72792 28.5542,1.46279 27.8078,0.648551 27.0614,-0.165687 25.7963,-0.220693 24.982,0.525692 Z M 14.3335,13 12.982,14.4743 c 0.7647,0.7009 1.9383,0.7009 2.7029,0 z M 3.68495,0.525692 C 2.87071,-0.220693 1.60557,-0.165687 0.859188,0.648551 0.112803,1.46279 0.167809,2.72792 0.982047,3.47431 Z m 21.29705,0 -12,11.000008 2.7029,2.9486 12,-10.99999 z M 15.6849,11.5257 3.68495,0.525692 0.982047,3.47431 12.982,14.4743 Z"
       fill="#f98a75"
       mask="url(#path-1-outside-1_600_255)"
       id="path126" /></g></svg>
