<svg width="24" height="24" viewBox="0 0 24 24" fill="none" xmlns="http://www.w3.org/2000/svg">
    <path fill-rule="evenodd" clip-rule="evenodd"
          d="M12 24C12.5411 24 13.0738 23.9642 13.5959 23.8948C13.0738 23.9636 12.5411 24 12 24ZM13.8748 23.8544V15.4695H16.6711L17.2026 12H13.8748V9.74883C13.8748 8.80044 14.3389 7.87399 15.8307 7.87399H17.3444V4.92082C17.3444 4.92082 15.9707 4.68626 14.6579 4.68626C11.9173 4.68626 10.1252 6.34678 10.1252 9.35564V12H7.07749V15.4695H10.1252V23.8544C4.38827 22.9543 0 17.9896 0 12C0 5.37258 5.37258 0 12 0C18.6274 0 24 5.37258 24 12C24 17.9896 19.6117 22.9543 13.8748 23.8544Z"
          fill="white"/>
</svg>
