<svg width="85" height="23" viewBox="0 0 85 23" fill="none" xmlns="http://www.w3.org/2000/svg">
    <path d="M55.25 12.1366H51.1023V16.1009H49V6.74088H51.1023V10.5399H55.25V6.74088H57.3522V16.0458H55.25V12.1366Z"
          fill="white"/>
    <path
        d="M62.409 16.2662C60.3636 16.2662 58.6022 15.4954 58.5454 13.2379H60.6477C60.6477 14.2841 61.2727 14.7796 62.4658 14.7796C63.3181 14.7796 64.284 14.3391 64.284 13.4582C64.284 12.7424 63.6022 12.5222 62.5227 12.1918L61.8408 12.0267C60.3636 11.5862 58.7727 10.9805 58.7727 9.38383C58.7727 7.2916 60.7613 6.63089 62.6363 6.63089C64.5113 6.63089 66.1022 7.29159 66.1022 9.32877H63.9999C63.9431 8.50289 63.4318 8.00736 62.4658 8.00736C61.7272 8.00736 60.9318 8.44783 60.9318 9.21865C60.9318 9.87936 61.5568 10.0996 62.9204 10.5401L63.7158 10.7603C65.3636 11.2558 66.3863 11.8615 66.3863 13.3481C66.3863 15.4954 64.284 16.2662 62.409 16.2662Z"
        fill="white"/>
    <path
        d="M67.5795 6.74088H70.9317C72.0113 6.74088 72.409 6.74087 72.8067 6.85099C73.9999 7.07123 74.8522 7.89711 74.8522 9.05334C74.8522 10.2096 74.0567 10.8703 72.9203 11.1456C74.2272 11.3658 75.1362 12.0265 75.1362 13.458C75.1362 15.5503 72.9772 16.0458 71.2726 16.0458H67.4658V6.74088H67.5795ZM70.9317 10.65C71.8408 10.65 72.8067 10.4849 72.8067 9.38369C72.8067 8.4477 71.9544 8.1724 71.0454 8.1724H69.5681V10.65H70.9317ZM71.159 14.7244C72.1249 14.7244 73.0908 14.5042 73.0908 13.3479C73.0908 12.2468 72.2953 11.9715 71.2726 11.9715H69.6249V14.6693H71.159V14.7244Z"
        fill="white"/>
    <path
        d="M80.6476 16.2662C77.5226 16.2662 76.1022 14.3391 76.1022 11.5311C76.1022 8.7231 77.6363 6.57581 80.7044 6.57581C82.6362 6.57581 84.5112 7.40169 84.568 9.54898H82.409C82.2953 8.66804 81.6703 8.11745 80.7612 8.11745C78.8862 8.11745 78.3181 10.0996 78.3181 11.5311C78.3181 13.0177 78.8863 14.7245 80.7044 14.7245C81.6135 14.7245 82.2953 14.229 82.5226 13.293H84.6817C84.3976 15.4953 82.6362 16.2662 80.6476 16.2662Z"
        fill="white"/>
    <path d="M33.9855 22.6758L45.3565 11.7187L33.9855 0.761566V22.6758Z" fill="white"/>
    <path d="M11.3072 22.676L0 11.7189L11.3072 0.76178V22.676Z" fill="white"/>
    <path d="M33.9855 0.761566L22.6144 11.7187L11.3073 0.761566H33.9855Z" fill="white"/>
    <path d="M11.3073 22.6759L22.6144 11.7188L33.9855 22.6759H11.3073Z" fill="white"/>
</svg>
