<svg width="61" height="62" viewBox="0 0 61 62" fill="none" xmlns="http://www.w3.org/2000/svg">
    <path
        d="M1 13C1 10.7916 2.79293 9 5.00279 9H5.08603H5.16917H5.25221H5.33517H5.41804H5.50081H5.58349H5.66609H5.74859H5.83101H5.91333H5.99557H6.07772H6.15978H6.24175H6.32363H6.40543H6.48714H6.56876H6.6503H6.73175H6.81311H6.89439H6.97558H7.05669H7.13772H7.21866H7.29951H7.38029H7.46097H7.54158H7.6221H7.70255H7.7829H7.86318H7.94338H8.02349H8.10353H8.18348H8.26335H8.34314H8.42286H8.50249H8.58205H8.66152H8.74092H8.82024H8.89949H8.97865H9.05774H9.13675H9.21568H9.29454H9.37333H9.45203H9.53067H9.60922H9.68771H9.76611H9.84445H9.92271H10.0009H10.079H10.1571H10.235H10.3129H10.3907H10.4685H10.5462H10.6238H10.7013H10.7788H10.8562H10.9335H11.0108H11.088H11.1651H11.2422H11.3192H11.3961H11.4729H11.5497H11.6264H11.7031H11.7797H11.8562H11.9326H12.009H12.0854H12.1616H12.2378H12.3139H12.39H12.466H12.542H12.6178H12.6937H12.7694H12.8451H12.9207H12.9963H13.0718H13.1473H13.2226H13.298H13.3732H13.4484H13.5236H13.5987H13.6737H13.7487H13.8236H13.8985H13.9733H14.048H14.1227H14.1973H14.2719H14.3464H14.4209H14.4953H14.5697H14.644H14.7182H14.7924H14.8665H14.9406H15.0147H15.0886H15.1626H15.2364H15.3103H15.384H15.4578H15.5314H15.6051H15.6786H15.7522H15.8256H15.8991H15.9724H16.0458H16.119H16.1923H16.2654H16.3386H16.4117H16.4847H16.5577H16.6307H16.7036H16.7764H16.8492H16.922H16.9947H17.0674H17.1401H17.2126H17.2852H17.3577H17.4302H17.5026H17.575H17.6473H17.7196H17.7919H17.8641H17.9363H18.0084H18.0805H18.1526H18.2246H18.2966H18.3685H18.4404H18.5123H18.5841H18.6559H18.7276H18.7993H18.871H18.9427H19.0143H19.0859H19.1574H19.2289H19.3004H19.3718H19.4432H19.5146H19.5859H19.6572H19.7285H19.7997H19.8709H19.9421H20.0132H20.0843H20.1554H20.2265H20.2975H20.3685H20.4394H20.5104H20.5813H20.6521H20.723H20.7938H20.8646H20.9353H21.0061H21.0768H21.1475H21.2181H21.2888H21.3594H21.4299H21.5005H21.571H21.6415H21.712H21.7825H21.8529H21.9233H21.9937H22.0641H22.1344H22.2048H22.2751H22.3453H22.4156H22.4858H22.5561H22.6263H22.6964H22.7666H22.8367H22.9069H22.977H23.0471H23.1171H23.1872H23.2572H23.3272H23.3972H23.4672H23.5372H23.6072H23.6771H23.747H23.8169H23.8868H23.9567H24.0266H24.0964H24.1663H24.2361H24.3059H24.3757H24.4455H24.5153H24.5851H24.6549H24.7246H24.7943H24.8641H24.9338H25.0035H25.0732H25.1429H25.2126H25.2823H25.3519H25.4216H25.4913H25.5609H25.6305H25.7002H25.7698H25.8394H25.9091H25.9787H26.0483H26.1179H26.1875H26.2571H26.3267H26.3963H26.4659H26.5355H26.605H26.6746H26.7442H26.8138H26.8834H26.9529H27.0225H27.0921H27.1617H27.2313H27.3008H27.3704H27.44H27.5096H27.5792H27.6488H27.7184H27.788H27.8576H27.9272H27.9968H28.0664H28.136H28.2056H28.2753H28.3449H28.4145H28.4842H28.5539H28.6235H28.6932H28.7629H28.8325H28.9022H28.9719H29.0416H29.1114H29.1811H29.2508H29.3206H29.3903H29.4601H29.5299H29.5997H29.6695H29.7393H29.8091H29.8789H29.9488H30.0187H30.0885H30.1584H30.2283H30.2983H30.3682H30.4381H30.5081H30.5781H30.6481H30.7181H30.7881H30.8582H30.9282H30.9983H31.0684H31.1385H31.2087H31.2788H31.349H31.4192H31.4894H31.5596H31.6299H31.7002H31.7705H31.8408H31.9111H31.9815H32.0519H32.1223H32.1927H32.2631H32.3336H32.4041H32.4746H32.5452H32.6158H32.6864H32.757H32.8276H32.8983H32.969H33.0397H33.1105H33.1813H33.2521H33.3229H33.3938H33.4646H33.5356H33.6065H33.6775H33.7485H33.8195H33.8906H33.9617H34.0328H34.104H34.1752H34.2464H34.3177H34.389H34.4603H34.5316H34.603H34.6745H34.7459H34.8174H34.8889H34.9605H35.0321H35.1037H35.1754H35.2471H35.3188H35.3906H35.4624H35.5343H35.6062H35.6781H35.75H35.8221H35.8941H35.9662H36.0383H36.1105H36.1827H36.2549H36.3272H36.3995H36.4719H36.5443H36.6167H36.6892H36.7618H36.8344H36.907H36.9796H37.0523H37.1251H37.1979H37.2707H37.3436H37.4166H37.4896H37.5626H37.6357H37.7088H37.7819H37.8552H37.9284H38.0017H38.0751H38.1485H38.2219H38.2954H38.369H38.4426H38.5163H38.59H38.6637H38.7375H38.8114H38.8853H38.9593H39.0333H39.1073H39.1815H39.2556H39.3299H39.4042H39.4785H39.5529H39.6273H39.7018H39.7764H39.851H39.9257H40.0004H40.0752H40.15H40.2249H40.2999H40.3749H40.4499H40.5251H40.6003H40.6755H40.7508H40.8262H40.9016H40.9771H41.0526H41.1282H41.2039H41.2796H41.3554H41.4313H41.5072H41.5832H41.6592H41.7353H41.8115H41.8878H41.9641H42.0404H42.1169H42.1934H42.2699H42.3465H42.4232H42.5H42.5122H42.5244H42.5366H42.5488H42.5611H42.5733H42.5855H42.5977H42.6099H42.6222H42.6344H42.6466H42.6588H42.6711H42.6833H42.6955H42.7078H42.72H42.7322H42.7445H42.7567H42.769H42.7812H42.7935H42.8057H42.818H42.8302H42.8425H42.8547H42.867H42.8792H42.8915H42.9038H42.916H42.9283H42.9406H42.9528H42.9651H42.9774H42.9896H43.0019H43.0142H43.0265H43.0388H43.051H43.0633H43.0756H43.0879H43.1002H43.1125H43.1248H43.1371H43.1494H43.1617H43.174H43.1863H43.1986H43.2109H43.2232H43.2355H43.2478H43.2601H43.2724H43.2848H43.2971H43.3094H43.3217H43.334H43.3464H43.3587H43.371H43.3834H43.3957H43.408H43.4204H43.4327H43.445H43.4574H43.4697H43.4821H43.4944H43.5068H43.5191H43.5315H43.5438H43.5562H43.5685H43.5809H43.5933H43.6056H43.618H43.6304H43.6427H43.6551H43.6675H43.6798H43.6922H43.7046H43.717H43.7294H43.7417H43.7541H43.7665H43.7789H43.7913H43.8037H43.8161H43.8285H43.8409H43.8533H43.8657H43.8781H43.8905H43.9029H43.9153H43.9277H43.9401H43.9525H43.965H43.9774H43.9898H44.0022H44.0146H44.0271H44.0395H44.0519H44.0643H44.0768H44.0892H44.1017H44.1141H44.1265H44.139H44.1514H44.1639H44.1763H44.1888H44.2012H44.2137H44.2261H44.2386H44.251H44.2635H44.276H44.2884H44.3009H44.3134H44.3258H44.3383H44.3508H44.3633H44.3757H44.3882H44.4007H44.4132H44.4257H44.4381H44.4506H44.4631H44.4756H44.4881H44.5006H44.5131H44.5256H44.5381H44.5506H44.5631H44.5756H44.5881H44.6007H44.6132H44.6257H44.6382H44.6507H44.6632H44.6758H44.6883H44.7008H44.7133H44.7259H44.7384H44.7509H44.7635H44.776H44.7886H44.8011H44.8136H44.8262H44.8387H44.8513H44.8638H44.8764H44.889H44.9015H44.9141H44.9266H44.9392H44.9518H44.9643H44.9769H44.9895H45.002H45.0146H45.0272H45.0398H45.0524H45.0649H45.0775H45.0901H45.1027H45.1153H45.1279H45.1405H45.1531H45.1657H45.1783H45.1909H45.2035H45.2161H45.2287H45.2413H45.2539H45.2665H45.2792H45.2918H45.3044H45.317H45.3296H45.3423H45.3549H45.3675H45.3802H45.3928H45.4054H45.4181H45.4307H45.4433H45.456H45.4686H45.4813H45.4939H45.5066H45.5192H45.5319H45.5446H45.5572H45.5699H45.5825H45.5952H45.6079H45.6205H45.6332H45.6459H45.6586H45.6712H45.6839H45.6966H45.7093H45.722H45.7347H45.7474H45.7601H45.7727H45.7854H45.7981H45.8108H45.8235H45.8363H45.849H45.8617H45.8744H45.8871H45.8998H45.9125H45.9252H45.938H45.9507H45.9634H45.9761H45.9889H46.0016H46.0143H46.0271H46.0398H46.0525H46.0653H46.078H46.0908H46.1035H46.1163H46.129H46.1418H46.1545H46.1673H46.18H46.1928H46.2056H46.2183H46.2311H46.2439H46.2566H46.2694H46.2822H46.295H46.3078H46.3205H46.3333H46.3461H46.3589H46.3717H46.3845H46.3973H46.4101H46.4229H46.4357H46.4485H46.4613H46.4741H46.4869H46.4997H46.5125H46.5253H46.5382H46.551H46.5638H46.5766H46.5895H46.6023H46.6151H46.6279H46.6408H46.6536H46.6665H46.6793H46.6921H46.705H46.7178H46.7307H46.7435H46.7564H46.7692H46.7821H46.795H46.8078H46.8207H46.8335H46.8464H46.8593H46.8722H46.885H46.8979H46.9108H46.9237H46.9366H46.9494H46.9623H46.9752H46.9881H47.001H47.0139H47.0268H47.0397H47.0526H47.0655H47.0784H47.0913H47.1042H47.1172H47.1301H47.143H47.1559H47.1688H47.1818H47.1947H47.2076H47.2205H47.2335H47.2464H47.2593H47.2723H47.2852H47.2982H47.3111H47.3241H47.337H47.35H47.3629H47.3759H47.3888H47.4018H47.4148H47.4277H47.4407H47.4537H47.4666H47.4796H47.4926H47.5056H47.5185H47.5315H47.5445H47.5575H47.5705H47.5835H47.5965H47.6095H47.6225H47.6355H47.6485H47.6615H47.6745H47.6875H47.7005H47.7135H47.7265H47.7396H47.7526H47.7656H47.7786H47.7917H47.8047H47.8177H47.8307H47.8438H47.8568H47.8699H47.8829H47.896H47.909H47.9221H47.9351H47.9482H47.9612H47.9743H47.9873H48.0004H48.0135H48.0265H48.0396H48.0527H48.0657H48.0788H48.0919H48.105H48.1181H48.1311H48.1442H48.1573H48.1704H48.1835H48.1966H48.2097H48.2228H48.2359H48.249H48.2621H48.2752H48.2883H48.3015H48.3146H48.3277H48.3408H48.3539H48.3671H48.3802H48.3933H48.4065H48.4196H48.4327H48.4459H48.459H48.4722H48.4853H48.4985H48.5116H48.5248H48.5379H48.5511H48.5642H48.5774H48.5906H48.6037H48.6169H48.6301H48.6432H48.6564H48.6696H48.6828H48.696H48.7091H48.7223H48.7355H48.7487H48.7619H48.7751H48.7883H48.8015H48.8147H48.8279H48.8411H48.8543H48.8675H48.8808H48.894H48.9072H48.9204H48.9337H48.9469H48.9601H48.9733H48.9866H48.9998C51.209 9 53 10.7909 53 13V19.5V57C53 59.2091 51.2091 61 49 61H5C2.79086 61 1 59.2091 1 57V13Z"
        stroke="#66CDD9" stroke-width="2"/>
    <path d="M10 53C10 43.6112 17.6112 36 27 36C36.3888 36 44 43.6112 44 53V61H10V53Z" stroke="#66CDD9"
          stroke-width="2"/>
    <path
        d="M36 25.5C36 28.1515 34.9721 30.8011 33.306 32.7807C31.6408 34.7592 29.4022 36 27 36C24.5978 36 22.3592 34.7592 20.694 32.7807C19.0279 30.8011 18 28.1515 18 25.5C18 20.3381 21.9406 17 27 17C32.0594 17 36 20.3381 36 25.5Z"
        stroke="#66CDD9" stroke-width="2"/>
    <path d="M18 38.5L23.4 45L27 40L30.6 45L35 38.5M18 25.3784H28.8L30.6 23L33 25.973H36" stroke="#66CDD9"
          stroke-width="2"/>
    <path d="M34 51H38.5" stroke="#66CDD9" stroke-width="2"/>
    <circle cx="50" cy="11" r="10" fill="white" stroke="#66CDD9" stroke-width="2"/>
    <path d="M50 6V15M46 12L50 16L54 12" stroke="#66CDD9" stroke-width="2"/>
</svg>
