<svg width="24" height="24" viewBox="0 0 24 24" fill="none" xmlns="http://www.w3.org/2000/svg">
    <path
        d="M17.3767 0H6.62299C2.97108 0 0 2.97122 0 6.62313V17.3769C0 21.0289 2.97108 24 6.62299 24H17.3767C21.0289 24 24 21.0288 24 17.3769V6.62313C24.0001 2.97122 21.0289 0 17.3767 0ZM21.8707 17.3769C21.8707 19.8548 19.8548 21.8706 17.3769 21.8706H6.62299C4.14522 21.8707 2.1294 19.8548 2.1294 17.3769V6.62313C2.1294 4.14537 4.14522 2.1294 6.62299 2.1294H17.3767C19.8546 2.1294 21.8706 4.14537 21.8706 6.62313V17.3769H21.8707Z"
        fill="white"/>
    <path
        d="M12 5.81641C8.58997 5.81641 5.8158 8.59058 5.8158 12.0006C5.8158 15.4105 8.58997 18.1845 12 18.1845C15.41 18.1845 18.1842 15.4105 18.1842 12.0006C18.1842 8.59058 15.41 5.81641 12 5.81641ZM12 16.055C9.76426 16.055 7.94519 14.2362 7.94519 12.0005C7.94519 9.76459 9.76412 7.94566 12 7.94566C14.2359 7.94566 16.0548 9.76459 16.0548 12.0005C16.0548 14.2362 14.2357 16.055 12 16.055Z"
        fill="white"/>
    <path
        d="M18.4435 4.01025C18.0333 4.01025 17.6302 4.17635 17.3405 4.46736C17.0493 4.75696 16.882 5.16013 16.882 5.57181C16.882 5.98222 17.0495 6.38524 17.3405 6.67626C17.6301 6.96586 18.0333 7.13337 18.4435 7.13337C18.8552 7.13337 19.2569 6.96586 19.548 6.67626C19.839 6.38524 20.0051 5.98207 20.0051 5.57181C20.0051 5.16013 19.839 4.75696 19.548 4.46736C19.2584 4.17635 18.8552 4.01025 18.4435 4.01025Z"
        fill="white"/>
</svg>
