<svg width="25" height="24" viewBox="0 0 25 24" fill="none" xmlns="http://www.w3.org/2000/svg">
    <path
        d="M15.33 11.2902L11.09 7.05019C10.997 6.95646 10.8864 6.88207 10.7646 6.8313C10.6427 6.78053 10.512 6.75439 10.38 6.75439C10.248 6.75439 10.1173 6.78053 9.99543 6.8313C9.87357 6.88207 9.76297 6.95646 9.67 7.05019C9.48375 7.23756 9.37921 7.49101 9.37921 7.75519C9.37921 8.01938 9.48375 8.27283 9.67 8.46019L13.21 12.0002L9.67 15.5402C9.48375 15.7276 9.37921 15.981 9.37921 16.2452C9.37921 16.5094 9.48375 16.7628 9.67 16.9502C9.76344 17.0429 9.87426 17.1162 9.9961 17.166C10.1179 17.2157 10.2484 17.241 10.38 17.2402C10.5116 17.241 10.6421 17.2157 10.7639 17.166C10.8857 17.1162 10.9966 17.0429 11.09 16.9502L15.33 12.7102C15.4237 12.6172 15.4981 12.5066 15.5489 12.3848C15.5997 12.2629 15.6258 12.1322 15.6258 12.0002C15.6258 11.8682 15.5997 11.7375 15.5489 11.6156C15.4981 11.4938 15.4237 11.3832 15.33 11.2902Z"
        fill="#21ABBA"/>
</svg>
