<svg width="25" height="25" viewBox="0 0 25 25" fill="none" xmlns="http://www.w3.org/2000/svg">
    <path
        d="M15.33 11.7899L11.09 7.54995C10.997 7.45622 10.8864 7.38183 10.7646 7.33106C10.6427 7.28029 10.512 7.25415 10.38 7.25415C10.248 7.25415 10.1173 7.28029 9.99543 7.33106C9.87357 7.38183 9.76297 7.45622 9.67 7.54995C9.48375 7.73731 9.37921 7.99076 9.37921 8.25495C9.37921 8.51913 9.48375 8.77259 9.67 8.95995L13.21 12.4999L9.67 16.0399C9.48375 16.2273 9.37921 16.4808 9.37921 16.7449C9.37921 17.0091 9.48375 17.2626 9.67 17.4499C9.76344 17.5426 9.87426 17.616 9.9961 17.6657C10.1179 17.7155 10.2484 17.7407 10.38 17.7399C10.5116 17.7407 10.6421 17.7155 10.7639 17.6657C10.8857 17.616 10.9966 17.5426 11.09 17.4499L15.33 13.2099C15.4237 13.117 15.4981 13.0064 15.5489 12.8845C15.5997 12.7627 15.6258 12.632 15.6258 12.4999C15.6258 12.3679 15.5997 12.2372 15.5489 12.1154C15.4981 11.9935 15.4237 11.8829 15.33 11.7899Z"
        fill="#FFA300"/>
</svg>
