<svg width="24" height="24" viewBox="0 0 24 24" fill="none" xmlns="http://www.w3.org/2000/svg">
    <path
        d="M20.4495 20.4494H16.8934V14.8803C16.8934 13.5523 16.8697 11.8428 15.0439 11.8428C13.1917 11.8428 12.9083 13.2897 12.9083 14.7836V20.449H9.35224V8.99677H12.766V10.5618H12.8139C13.509 9.37335 14.8062 8.66088 16.1822 8.71197C19.7864 8.71197 20.451 11.0827 20.451 14.1669L20.4495 20.4494ZM5.33975 7.4313C4.20765 7.4313 3.27564 6.49984 3.27564 5.36773C3.27564 4.23563 4.20722 3.30406 5.33932 3.30406C6.47131 3.30406 7.40278 4.23542 7.40299 5.3673C7.40299 6.49919 6.47164 7.43119 5.33975 7.4313ZM7.11777 20.4494H3.55797V8.99677H7.11777V20.4494ZM22.2223 0.00168334L1.77094 0.000152031C0.810915 -0.0106902 0.011701 0.771481 0 1.7315V22.2678C0.0112716 23.2283 0.810378 24.0098 1.77094 23.9995H22.2223C23.1852 24.0117 23.9871 23.2303 24 22.2678V1.73011C23.9871 0.768045 23.1841 -0.0124875 22.2223 0.000179697V0.00168334Z"
        fill="white"/>
</svg>
