<svg width="204" height="45" viewBox="0 0 204 45" fill="none" xmlns="http://www.w3.org/2000/svg">
    <path
        d="M110.085 19.2071C110.792 19.2071 111.422 19.4126 111.422 19.4126C111.435 18.3462 111.229 17.9222 110.368 17.9222C109.584 17.9222 108.825 18.1278 108.465 18.2306C108.259 18.282 108.144 18.1406 108.092 17.9608L107.951 17.3312C107.899 17.1128 108.015 16.9971 108.169 16.9458C108.285 16.8944 109.249 16.5603 110.509 16.5603C112.682 16.5603 112.888 17.8837 112.888 19.5797V23.19C112.888 23.3571 112.733 23.5113 112.566 23.5113H112.091C111.936 23.5113 111.872 23.447 111.808 23.28L111.641 22.8174C111.268 23.1772 110.599 23.6783 109.558 23.6783C108.285 23.6783 107.372 22.8174 107.372 21.4041C107.372 20.1578 108.362 19.2071 110.085 19.2071ZM109.892 22.4705C110.573 22.4705 111.216 21.9566 111.422 21.6225V20.5433C111.319 20.479 110.843 20.2735 110.239 20.2735C109.429 20.2735 108.864 20.6975 108.864 21.3913C108.851 21.9951 109.262 22.4705 109.892 22.4705Z"
        fill="#E1F5F7"/>
    <path
        d="M117.902 16.5474C118.763 16.5474 119.38 16.8687 119.534 16.92V11.9477C119.534 11.7807 119.689 11.6265 119.856 11.6265H120.846C121.013 11.6265 121.167 11.7807 121.167 11.9477V23.1772C121.167 23.3442 121.013 23.4984 120.846 23.4984H120.332C120.177 23.4984 120.074 23.3828 120.023 23.2157L119.882 22.7275C119.882 22.7275 119.072 23.6783 117.722 23.6783C115.922 23.6783 114.546 22.0722 114.546 20.1193C114.559 18.1278 116.012 16.5474 117.902 16.5474ZM117.927 22.2136C118.969 22.2136 119.457 21.3784 119.534 21.1985V18.4362C119.534 18.4362 118.943 18.025 118.056 18.025C116.925 18.025 116.127 18.9629 116.127 20.1064C116.127 21.2499 116.847 22.2136 117.927 22.2136Z"
        fill="#E1F5F7"/>
    <path
        d="M122.44 17.0999C122.337 16.8815 122.44 16.7145 122.697 16.7145H123.7C123.867 16.7145 123.957 16.8044 124.009 16.9072L125.77 20.9159H125.783L127.621 16.9072C127.711 16.7145 127.891 16.7145 128.084 16.7145H128.868C129.126 16.7145 129.228 16.8815 129.126 17.0999L126.117 23.4984C126.079 23.5884 125.976 23.6654 125.834 23.6654H125.744C125.59 23.6654 125.487 23.5755 125.461 23.4984L122.44 17.0999Z"
        fill="#E1F5F7"/>
    <path
        d="M132.622 19.2071C133.33 19.2071 133.959 19.4126 133.959 19.4126C133.972 18.3462 133.767 17.9222 132.905 17.9222C132.121 17.9222 131.362 18.1278 131.002 18.2306C130.797 18.282 130.681 18.1406 130.63 17.9608L130.488 17.3312C130.437 17.1128 130.552 16.9971 130.707 16.9458C130.822 16.8944 131.787 16.5603 133.047 16.5603C135.219 16.5603 135.425 17.8837 135.425 19.5797V23.19C135.425 23.3571 135.271 23.5113 135.104 23.5113H134.628C134.474 23.5113 134.409 23.447 134.345 23.28L134.178 22.8174C133.805 23.1772 133.137 23.6783 132.095 23.6783C130.822 23.6783 129.91 22.8174 129.91 21.4041C129.91 20.1578 130.9 19.2071 132.622 19.2071ZM132.417 22.4705C133.098 22.4705 133.741 21.9566 133.947 21.6225V20.5433C133.844 20.479 133.368 20.2735 132.764 20.2735C131.954 20.2735 131.388 20.6975 131.388 21.3913C131.388 21.9951 131.8 22.4705 132.417 22.4705Z"
        fill="#E1F5F7"/>
    <path
        d="M137.585 17.0357C137.585 16.8686 137.739 16.7145 137.906 16.7145H138.395C138.536 16.7145 138.626 16.8044 138.665 16.92L138.871 17.4982C138.986 17.3569 139.886 16.5474 141.249 16.5474C143.319 16.5474 144.078 18.0121 144.078 19.7724V23.1772C144.078 23.3442 143.923 23.4984 143.756 23.4984H142.792C142.599 23.4984 142.471 23.3442 142.471 23.1772V19.6953C142.471 18.616 141.943 18.0121 141.056 18.0121C139.989 18.0121 139.256 18.7959 139.166 19.0272V23.1643C139.166 23.3828 139.064 23.4855 138.781 23.4855H137.894C137.726 23.4855 137.572 23.3314 137.572 23.1643V17.0357H137.585Z"
        fill="#E1F5F7"/>
    <path
        d="M146.597 18.1277H145.89C145.697 18.1277 145.569 17.9736 145.569 17.8065V17.0485C145.569 16.8558 145.71 16.7273 145.89 16.7273H146.597V14.8386C146.597 14.6715 146.752 14.5174 146.919 14.5174L147.883 14.5045C148.05 14.5045 148.192 14.6587 148.192 14.8257V16.7273H149.927C150.12 16.7273 150.249 16.8686 150.249 17.0485V17.8065C150.249 17.9736 150.107 18.1277 149.927 18.1277H148.192V21.4812C148.192 22.0593 148.41 22.1621 148.732 22.1621C149.092 22.1621 149.567 21.9566 149.773 21.8538C149.992 21.751 150.094 21.8538 150.159 22.008L150.467 22.7532C150.557 22.9459 150.48 23.0744 150.313 23.1643C150.146 23.2671 149.143 23.6782 148.333 23.6782C146.996 23.6782 146.597 22.8688 146.597 21.661V18.1277Z"
        fill="#E1F5F7"/>
    <path
        d="M154.247 19.2071C154.954 19.2071 155.584 19.4126 155.584 19.4126C155.597 18.3462 155.391 17.9222 154.53 17.9222C153.746 17.9222 152.987 18.1278 152.627 18.2306C152.422 18.282 152.306 18.1406 152.254 17.9608L152.113 17.3312C152.062 17.1128 152.177 16.9971 152.332 16.9458C152.447 16.8944 153.411 16.5603 154.671 16.5603C156.844 16.5603 157.05 17.8837 157.05 19.5797V23.19C157.05 23.3571 156.896 23.5113 156.728 23.5113H156.253C156.099 23.5113 156.034 23.447 155.97 23.28L155.803 22.8174C155.43 23.1772 154.761 23.6783 153.72 23.6783C152.447 23.6783 151.534 22.8174 151.534 21.4041C151.534 20.1578 152.512 19.2071 154.247 19.2071ZM154.041 22.4705C154.723 22.4705 155.366 21.9566 155.571 21.6225V20.5433C155.469 20.479 154.993 20.2735 154.389 20.2735C153.579 20.2735 153.013 20.6975 153.013 21.3913C153.013 21.9951 153.411 22.4705 154.041 22.4705Z"
        fill="#E1F5F7"/>
    <path
        d="M159.724 21.16C159.724 21.16 159.197 20.5304 159.197 19.5154C159.197 17.9351 160.38 16.5474 162.115 16.5474H165.085C165.278 16.5474 165.407 16.6888 165.407 16.8686V17.2926C165.407 17.4083 165.342 17.5624 165.214 17.5753L164.275 17.8323C164.275 17.8323 165.008 18.3719 165.008 19.6439C165.008 21.0829 163.89 22.4063 162.128 22.4063C161.267 22.4063 160.791 22.1365 160.65 22.1365C160.534 22.1365 159.955 22.4191 159.955 22.9716C159.955 23.3571 160.264 23.6654 160.765 23.6654H163.08C164.558 23.6654 165.741 24.462 165.741 25.9396C165.741 27.43 164.378 28.7534 162.128 28.7534C159.737 28.7534 158.773 27.5328 158.773 26.4278C158.773 25.4128 159.608 24.9374 159.775 24.8346V24.7832C159.415 24.6804 158.516 24.2179 158.516 23.0872C158.528 21.7896 159.724 21.16 159.724 21.16ZM162.115 27.3657C163.157 27.3657 164.044 26.839 164.044 26.0295C164.044 25.7597 163.877 25.0659 162.771 25.0659C162.282 25.0659 161.768 25.0659 161.28 25.1044C161.177 25.143 160.341 25.4128 160.341 26.1708C160.354 26.8518 161.087 27.3657 162.115 27.3657ZM163.581 19.5539C163.581 18.6417 163.002 17.9993 162.154 17.9993C161.293 17.9993 160.663 18.6417 160.663 19.5539C160.663 20.4662 161.293 21.1086 162.154 21.1086C163.002 21.1086 163.581 20.4662 163.581 19.5539Z"
        fill="#E1F5F7"/>
    <path
        d="M169.906 16.5474C171.668 16.5474 173.031 17.8708 173.031 19.6824C173.031 19.7981 173.018 20.0165 172.992 20.145C172.979 20.312 172.838 20.4276 172.683 20.4276H168.068C168.119 21.3399 168.917 22.2392 170.022 22.2392C170.639 22.2392 171.192 21.9694 171.526 21.751C171.732 21.6354 171.848 21.5583 171.989 21.7382L172.465 22.3806C172.581 22.5219 172.632 22.6504 172.426 22.8174C171.938 23.2414 171.051 23.6654 169.919 23.6654C167.862 23.6654 166.512 22.0594 166.512 20.1064C166.512 18.192 167.875 16.5474 169.906 16.5474ZM171.449 19.3612C171.398 18.5518 170.716 17.858 169.894 17.858C168.981 17.858 168.261 18.5132 168.158 19.3612H171.449Z"
        fill="#E1F5F7"/>
    <path
        d="M180.025 28.2652C180.025 28.4579 179.909 28.5864 179.665 28.5864H178.713C178.546 28.5864 178.392 28.4322 178.392 28.2652V17.0357C178.392 16.8687 178.546 16.7145 178.713 16.7145H179.228C179.369 16.7145 179.446 16.7787 179.51 16.9329L179.678 17.3697C179.793 17.2541 180.488 16.5346 181.747 16.5346C183.612 16.5346 184.987 18.1663 184.987 20.1193C184.987 22.0979 183.522 23.6654 181.683 23.6654C180.796 23.6654 180.14 23.28 180.025 23.2029V28.2652ZM181.49 22.2136C182.609 22.2136 183.419 21.2756 183.419 20.1321C183.419 19.0015 182.712 18.025 181.555 18.025C180.565 18.025 180.063 18.8088 179.999 19.0143V21.7253C179.986 21.7125 180.59 22.2136 181.49 22.2136Z"
        fill="#E1F5F7"/>
    <path
        d="M186.71 11.9477C186.71 11.7807 186.864 11.6265 187.031 11.6265H187.995C188.163 11.6265 188.317 11.7807 188.317 11.9477V23.1772C188.317 23.3442 188.163 23.4984 187.995 23.4984H187.031C186.864 23.4984 186.71 23.3442 186.71 23.1772V11.9477Z"
        fill="#E1F5F7"/>
    <path
        d="M190.426 17.0357C190.426 16.8687 190.58 16.7145 190.747 16.7145H191.711C191.878 16.7145 192.033 16.8687 192.033 17.0357V20.5176C192.033 21.6226 192.56 22.2136 193.421 22.2136C194.424 22.2136 195.054 21.4041 195.105 21.0958V17.0485C195.105 16.7787 195.247 16.7273 195.478 16.7273H196.365C196.532 16.7273 196.687 16.8815 196.687 17.0485V23.1901C196.687 23.3571 196.532 23.5113 196.365 23.5113H195.89C195.722 23.5113 195.632 23.3956 195.581 23.2415L195.414 22.7532C195.26 22.8945 194.552 23.6911 193.177 23.6911C191.146 23.6911 190.426 22.2521 190.426 20.4919V17.0357Z"
        fill="#E1F5F7"/>
    <path
        d="M198.487 22.6119L198.847 21.9566C198.911 21.8153 199.104 21.7639 199.271 21.8667C199.271 21.8667 200.017 22.3035 200.852 22.3035C201.367 22.3035 201.688 22.0979 201.688 21.7253C201.688 21.2628 201.315 21.0444 200.377 20.6204C199.322 20.1578 198.448 19.5154 198.448 18.3976C198.448 17.5496 199.142 16.5346 200.775 16.5346C201.727 16.5346 202.434 16.843 202.781 17.0614C202.935 17.1642 203.012 17.3826 202.922 17.5496L202.614 18.1278C202.524 18.282 202.305 18.3334 202.177 18.2691C202.177 18.2691 201.431 17.9094 200.788 17.9094C200.21 17.9094 200.03 18.1663 200.03 18.4233C200.03 18.8602 200.454 19.0529 201.109 19.3355C202.344 19.8752 203.372 20.402 203.372 21.6739C203.372 22.7275 202.369 23.6526 200.865 23.6526C199.734 23.6526 198.975 23.2414 198.628 22.9588C198.487 22.9074 198.423 22.7532 198.487 22.6119Z"
        fill="#E1F5F7"/>
    <path
        d="M109.493 43.6832C109.493 43.8759 109.378 44.0044 109.133 44.0044H108.182C108.015 44.0044 107.861 43.8502 107.861 43.6832V32.4537C107.861 32.2867 108.015 32.1325 108.182 32.1325H108.696C108.838 32.1325 108.915 32.1968 108.979 32.3509L109.146 32.7878C109.262 32.6721 109.956 31.9526 111.216 31.9526C113.08 31.9526 114.456 33.5844 114.456 35.5373C114.456 37.516 112.99 39.0835 111.152 39.0835C110.265 39.0835 109.609 38.698 109.493 38.6209V43.6832ZM110.959 37.6316C112.078 37.6316 112.888 36.6937 112.888 35.5502C112.888 34.4195 112.18 33.443 111.023 33.443C110.033 33.443 109.532 34.2268 109.468 34.4324V37.1434C109.468 37.1305 110.059 37.6316 110.959 37.6316Z"
        fill="#E1F5F7"/>
    <path
        d="M116.179 32.4537C116.179 32.2867 116.333 32.1325 116.5 32.1325H116.989C117.105 32.1325 117.246 32.2353 117.272 32.3638L117.465 32.942C117.58 32.7749 118.21 31.9526 119.445 31.9526C120.087 31.9526 120.872 32.1197 120.679 32.5822L120.267 33.4173C120.177 33.6101 120.01 33.6358 119.856 33.5715C119.753 33.5201 119.496 33.4559 119.277 33.4559C118.287 33.4559 117.812 34.1626 117.747 34.291V38.5952C117.747 38.8779 117.555 38.9164 117.285 38.9164H116.5C116.333 38.9164 116.179 38.7623 116.179 38.5952V32.4537Z"
        fill="#E1F5F7"/>
    <path
        d="M124.754 31.9655C126.657 31.9655 128.187 33.5972 128.187 35.5116C128.187 37.4646 126.657 39.0963 124.754 39.0963C122.851 39.0963 121.322 37.4646 121.322 35.5116C121.322 33.5972 122.851 31.9655 124.754 31.9655ZM124.754 37.6316C125.821 37.6316 126.67 36.6808 126.67 35.5116C126.67 34.381 125.821 33.443 124.754 33.443C123.687 33.443 122.839 34.381 122.839 35.5116C122.839 36.6808 123.687 37.6316 124.754 37.6316Z"
        fill="#E1F5F7"/>
    <path
        d="M130.398 36.578C130.398 36.578 129.871 35.9484 129.871 34.9334C129.871 33.3531 131.054 31.9655 132.79 31.9655H135.759C135.952 31.9655 136.081 32.1068 136.081 32.2867V32.7107C136.081 32.8263 136.017 32.9805 135.888 32.9933L134.949 33.2503C134.949 33.2503 135.682 33.7899 135.682 35.0619C135.682 36.5009 134.564 37.8243 132.802 37.8243C131.941 37.8243 131.465 37.5545 131.324 37.5545C131.208 37.5545 130.63 37.8371 130.63 38.3896C130.63 38.7751 130.938 39.0834 131.44 39.0834H133.754C135.232 39.0834 136.415 39.88 136.415 41.3576C136.415 42.848 135.052 44.1714 132.802 44.1714C130.411 44.1714 129.447 42.9508 129.447 41.8458C129.447 40.8308 130.283 40.3554 130.45 40.2526V40.2012C130.09 40.0985 129.19 39.6359 129.19 38.5053C129.203 37.2076 130.398 36.578 130.398 36.578ZM132.802 42.7838C133.844 42.7838 134.731 42.257 134.731 41.4475C134.731 41.1777 134.564 40.4839 133.458 40.4839C132.97 40.4839 132.455 40.4839 131.967 40.5225C131.864 40.561 131.028 40.8308 131.028 41.5889C131.028 42.2698 131.761 42.7838 132.802 42.7838ZM134.255 34.972C134.255 34.0597 133.677 33.4173 132.828 33.4173C131.967 33.4173 131.337 34.0597 131.337 34.972C131.337 35.8842 131.967 36.5266 132.828 36.5266C133.677 36.5266 134.255 35.8842 134.255 34.972Z"
        fill="#E1F5F7"/>
    <path
        d="M137.688 32.4537C137.688 32.2867 137.842 32.1325 138.009 32.1325H138.498C138.613 32.1325 138.755 32.2353 138.781 32.3638L138.973 32.942C139.089 32.7749 139.719 31.9526 140.953 31.9526C141.596 31.9526 142.38 32.1197 142.188 32.5822L141.776 33.4173C141.686 33.6101 141.519 33.6358 141.365 33.5715C141.262 33.5201 141.005 33.4559 140.786 33.4559C139.796 33.4559 139.321 34.1626 139.256 34.291V38.5952C139.256 38.8779 139.063 38.9164 138.793 38.9164H137.984C137.816 38.9164 137.662 38.7623 137.662 38.5952V32.4537H137.688Z"
        fill="#E1F5F7"/>
    <path
        d="M145.608 34.6251C146.315 34.6251 146.945 34.8307 146.945 34.8307C146.958 33.7643 146.752 33.3403 145.89 33.3403C145.106 33.3403 144.348 33.5459 143.988 33.6487C143.782 33.7001 143.666 33.5587 143.615 33.3788L143.473 32.7493C143.422 32.5309 143.538 32.4152 143.692 32.3638C143.808 32.3124 144.772 31.9784 146.032 31.9784C148.205 31.9784 148.41 33.3018 148.41 34.9977V38.6081C148.41 38.7751 148.256 38.9293 148.089 38.9293H147.613C147.459 38.9293 147.395 38.865 147.33 38.698L147.163 38.2355C146.79 38.5952 146.122 39.0963 145.08 39.0963C143.808 39.0963 142.895 38.2355 142.895 36.8222C142.895 35.5759 143.872 34.6251 145.608 34.6251ZM145.402 37.8886C146.083 37.8886 146.726 37.3746 146.932 37.0406V35.9613C146.829 35.8971 146.353 35.6915 145.749 35.6915C144.939 35.6915 144.373 36.1155 144.373 36.8093C144.373 37.4132 144.772 37.8886 145.402 37.8886Z"
        fill="#E1F5F7"/>
    <path
        d="M150.57 32.4537C150.57 32.2867 150.725 32.1325 150.892 32.1325H151.367C151.522 32.1325 151.599 32.2224 151.65 32.3381L151.843 32.9162C151.997 32.7621 152.782 31.9655 154.08 31.9655C155.07 31.9655 155.777 32.3509 156.266 33.0447C156.459 32.852 157.436 31.9655 158.721 31.9655C160.791 31.9655 161.524 33.4302 161.524 35.1904V38.5952C161.524 38.7622 161.383 38.9164 161.203 38.9164H160.251C160.058 38.9164 159.93 38.7622 159.93 38.5952V35.1133C159.93 34.0469 159.441 33.4302 158.516 33.4302C157.474 33.4302 156.883 34.1625 156.767 34.2653C156.806 34.4195 156.819 34.7407 156.819 35.0748V38.5823C156.819 38.7494 156.664 38.9036 156.497 38.9036H155.597C155.404 38.9036 155.276 38.7494 155.276 38.5823V35.1005C155.276 34.0212 154.787 33.4173 153.836 33.4173C152.82 33.4173 152.242 34.2139 152.152 34.4323V38.5695C152.152 38.7365 151.997 38.8907 151.83 38.8907H150.879C150.712 38.8907 150.557 38.7365 150.557 38.5695V32.4537H150.57Z"
        fill="#E1F5F7"/>
    <path
        d="M163.645 32.4537C163.645 32.2867 163.799 32.1325 163.967 32.1325H164.442C164.597 32.1325 164.674 32.2224 164.725 32.3381L164.918 32.9162C165.072 32.7621 165.856 31.9655 167.155 31.9655C168.145 31.9655 168.852 32.3509 169.341 33.0447C169.533 32.852 170.511 31.9655 171.796 31.9655C173.866 31.9655 174.599 33.4302 174.599 35.1904V38.5952C174.599 38.7622 174.457 38.9164 174.277 38.9164H173.326C173.133 38.9164 173.005 38.7622 173.005 38.5952V35.1133C173.005 34.0469 172.516 33.4302 171.59 33.4302C170.549 33.4302 169.958 34.1625 169.842 34.2653C169.881 34.4195 169.893 34.7407 169.893 35.0748V38.5823C169.893 38.7494 169.739 38.9036 169.572 38.9036H168.672C168.479 38.9036 168.351 38.7494 168.351 38.5823V35.1005C168.351 34.0212 167.862 33.4173 166.911 33.4173C165.895 33.4173 165.316 34.2139 165.226 34.4323V38.5695C165.226 38.7365 165.072 38.8907 164.905 38.8907H163.954C163.787 38.8907 163.632 38.7365 163.632 38.5695V32.4537H163.645Z"
        fill="#E1F5F7"/>
    <path
        d="M179.639 31.9655C181.4 31.9655 182.763 33.2888 182.763 35.1005C182.763 35.2161 182.75 35.4345 182.724 35.563C182.711 35.73 182.57 35.8457 182.416 35.8457H177.8C177.852 36.7579 178.649 37.6573 179.754 37.6573C180.371 37.6573 180.924 37.3875 181.259 37.169C181.464 37.0534 181.58 36.9763 181.721 37.1562L182.197 37.7986C182.313 37.9399 182.364 38.0684 182.159 38.2354C181.67 38.6594 180.783 39.0834 179.652 39.0834C177.594 39.0834 176.245 37.4774 176.245 35.5244C176.245 33.61 177.594 31.9655 179.639 31.9655ZM181.181 34.7792C181.13 33.9698 180.449 33.276 179.626 33.276C178.713 33.276 177.993 33.9313 177.89 34.7792H181.181Z"
        fill="#E1F5F7"/>
    <path
        d="M74.5886 9.41905C73.2515 9.6548 72.0323 10.5587 71.9925 12.2879C72.2281 13.6241 73.1323 14.8425 74.8626 14.8818L91.7719 15.0004C93.109 14.7646 94.3283 13.8607 94.368 12.1315C94.1324 10.7953 93.2282 9.57695 91.498 9.53758L74.5886 9.41905Z"
        fill="white"/>
    <path
        d="M80.4411 3.62357L80.4678 20.6179C80.529 22.4959 81.761 23.358 83.1164 23.3888C84.4718 23.4197 85.8584 22.0959 85.8895 20.7413L85.8628 3.74693C85.894 2.39231 84.5697 1.00685 83.2143 0.976017C81.6431 1.25304 80.4723 2.26896 80.4411 3.62357Z"
        fill="white"/>
    <path fill-rule="evenodd" clip-rule="evenodd"
          d="M27.5682 16.32C26.1716 15.6915 25.0128 15.1691 25.0128 15.1691C23.0472 14.1709 20.7916 15.0645 19.9054 16.8276C18.0445 15.6522 15.9017 14.9196 13.7024 14.7022C10.4639 14.3802 7.15297 15.2336 4.43814 17.5844C1.89248 19.7822 0.329642 22.8415 0.047686 26.1826C-0.23427 29.5317 0.740492 32.7842 2.8028 35.3363C4.9376 37.985 8.023 39.6032 11.487 39.893C14.508 40.1506 17.8592 39.104 18.8098 37.9206C19.0837 34.7405 18.6245 31.3753 18.0445 29.6122C16.2158 31.8986 14.073 32.2528 13.356 32.3334C12.9371 32.3817 12.5262 32.3897 12.1315 32.3495C9.32 32.116 7.37853 29.733 7.62827 26.8105C7.83772 24.3873 9.76307 22.3021 12.2362 22.0847C16.3125 21.7225 18.5681 25.4419 19.5348 28.8554C20.1324 30.9628 20.2205 33.1403 20.3084 35.3133C20.3236 35.6889 20.3387 36.0643 20.3566 36.4392C20.5499 38.5244 22.3947 40.0782 24.4812 39.9091C25.5207 39.8249 26.4262 39.329 27.0493 38.5937C26.4735 38.1698 25.9266 37.6947 25.4151 37.169C22.924 34.6172 21.5541 31.2329 21.5541 27.6769C21.5541 24.1254 22.8748 20.7593 25.2763 18.2354L25.2771 18.2346C25.9749 17.5025 26.7433 16.8625 27.5682 16.32Z"
          fill="white"/>
    <path
        d="M50.3535 18.0079C50.4824 13.6766 50.1682 9.28896 50.2166 4.9818C50.2407 2.89666 48.5651 1.18185 46.4786 1.13354C44.3841 1.08524 42.6682 2.73564 42.644 4.81274C42.6682 5.5373 42.6843 6.25382 42.7165 6.97034C42.7165 6.97034 42.9179 13.0809 42.9179 13.0889C43.1032 18.7969 43.506 27.3629 38.6161 31.4285C37.7702 32.137 36.7391 32.5959 35.6435 32.6925C32.7192 32.9501 30.0849 30.6396 30.0849 27.6849C30.0849 25.8091 31.0516 24.054 32.7434 23.1926C35.3374 21.8803 38.7047 23.1443 40.2434 25.4468C40.8154 22.774 40.9926 20.4312 40.9926 17.3397C40.2676 16.43 37.7864 15.3673 34.8621 15.3673C31.5108 15.3673 28.4174 16.6796 26.1456 19.0626C23.9625 21.357 22.7541 24.4244 22.7541 27.6769C22.7541 30.9213 24.0028 34.0048 26.2745 36.3314C29.6419 39.7933 34.7251 40.856 39.2686 39.3022C47.8481 36.3797 50.1199 25.946 50.3535 18.0079Z"
        fill="white"/>
    <path
        d="M58.0983 30.4655C57.7197 29.9583 57.3814 29.4109 57.035 28.8634C56.2697 27.6477 55.5044 26.4401 54.731 25.2245C53.579 23.413 52.4351 21.5936 51.2831 19.7822C51.2106 19.6614 51.13 19.4521 51.0172 19.3635C49.978 17.536 47.6338 16.8839 45.7809 17.9063C43.928 18.9288 43.2594 21.2313 44.2986 23.0508L53.6918 37.9769C55.1821 40.6014 58.9764 40.5209 60.4265 37.9769L64.6961 31.1981C64 32 62.4002 32.6956 61.0629 32.4782C59.7256 32.2528 58.8395 31.4477 58.0983 30.4655Z"
        fill="white"/>
    <path fill-rule="evenodd" clip-rule="evenodd"
          d="M66.617 28.1361L69.8036 23.0427C70.8347 21.2152 70.1741 18.9127 68.3455 17.8902C66.5168 16.8678 64.2047 17.528 63.1736 19.3474C63.1736 19.3474 60.3555 23.9071 57.8607 27.9228C57.9237 28.0228 57.9867 28.1228 58.0497 28.2228L58.1621 28.4007L58.1621 28.4007C58.4728 28.8928 58.7515 29.3342 59.0581 29.7452C59.7118 30.6109 60.3567 31.1411 61.2587 31.2943C61.6668 31.3598 62.183 31.2914 62.6961 31.0977C63.7136 30.7136 65.1977 29.4491 66.617 28.1361Z"
          fill="white"/>
</svg>
