<svg width="79" height="33" viewBox="0 0 79 33" fill="none" xmlns="http://www.w3.org/2000/svg">
    <path
        d="M61.0271 7.7974C59.9331 7.99029 58.9355 8.72981 58.903 10.1446C59.0958 11.2379 59.8356 12.2347 61.2512 12.2669L75.0861 12.3639C76.1801 12.171 77.1777 11.4315 77.2102 10.0167C77.0174 8.92342 76.2777 7.92659 74.862 7.89438L61.0271 7.7974Z"
        fill="white"/>
    <path
        d="M65.8155 3.05567L65.8373 16.9601C65.8873 18.4967 66.8953 19.202 68.0043 19.2272C69.1133 19.2525 70.2478 18.1694 70.2732 17.061L70.2514 3.1566C70.2769 2.04827 69.1934 0.914718 68.0844 0.889486C66.7989 1.11614 65.841 1.94735 65.8155 3.05567Z"
        fill="white"/>
    <path fill-rule="evenodd" clip-rule="evenodd"
          d="M22.5558 13.4437C21.4131 12.9294 20.4651 12.502 20.4651 12.502C18.8568 11.6852 17.0113 12.4164 16.2863 13.8589C14.7637 12.8972 13.0104 12.2978 11.2111 12.12C8.5614 11.8565 5.85243 12.5547 3.6312 14.4781C1.54839 16.2764 0.269707 18.7794 0.0390158 21.513C-0.191675 24.2532 0.605857 26.9143 2.2932 29.0024C4.03986 31.1695 6.56428 32.4935 9.39848 32.7306C11.8702 32.9414 14.6121 32.0851 15.3899 31.1168C15.614 28.515 15.2383 25.7616 14.7637 24.3191C13.2675 26.1898 11.5142 26.4796 10.9276 26.5455C10.5849 26.585 10.2487 26.5916 9.92577 26.5586C7.62545 26.3676 6.03698 24.4179 6.24131 22.0268C6.41268 20.0441 7.98797 18.3381 10.0115 18.1602C13.3466 17.8638 15.1921 20.907 15.9831 23.6999C16.472 25.4241 16.544 27.2057 16.6159 28.9836C16.6284 29.2909 16.6408 29.5981 16.6554 29.9048C16.8135 31.6108 18.3229 32.8821 20.03 32.7438C20.8805 32.6749 21.6214 32.2692 22.1312 31.6676C21.6601 31.3207 21.2126 30.932 20.7942 30.5019C18.756 28.4141 17.6352 25.6451 17.6352 22.7356C17.6352 19.8298 18.7157 17.0758 20.6806 15.0108L20.6812 15.0101C21.2522 14.4111 21.8809 13.8875 22.5558 13.4437Z"
          fill="white"/>
    <path
        d="M41.1983 14.8247C41.3038 11.2809 41.0467 7.69095 41.0863 4.16692C41.1061 2.46089 39.7351 1.05786 38.028 1.01834C36.3143 0.978818 34.9104 2.32915 34.8906 4.02859C34.9104 4.62142 34.9235 5.20766 34.9499 5.7939C34.9499 5.7939 35.1147 10.7934 35.1147 10.8C35.2663 15.4702 35.5958 22.4787 31.595 25.8052C30.9029 26.3848 30.0593 26.7603 29.1629 26.8393C26.7703 27.0501 24.615 25.1596 24.615 22.7422C24.615 21.2074 25.4059 19.7715 26.79 19.0667C28.9124 17.993 31.6675 19.0272 32.9264 20.911C33.3944 18.7241 33.5394 16.8073 33.5394 14.2779C32.9462 13.5336 30.9161 12.6641 28.5235 12.6641C25.7816 12.6641 23.2506 13.7378 21.3919 15.6876C19.6057 17.5648 18.617 20.0745 18.617 22.7356C18.617 25.3902 19.6386 27.913 21.4973 29.8166C24.2524 32.649 28.4115 33.5185 32.1289 32.2472C39.1485 29.8562 41.0072 21.3194 41.1983 14.8247Z"
        fill="white"/>
    <path
        d="M47.535 25.0172C47.2252 24.6023 46.9484 24.1544 46.665 23.7064C46.0388 22.7118 45.4126 21.7238 44.7799 20.7291C43.8373 19.2471 42.9014 17.7584 41.9589 16.2763C41.8995 16.1775 41.8336 16.0063 41.7413 15.9338C40.8911 14.4386 38.9731 13.905 37.4571 14.7416C35.9411 15.5781 35.394 17.462 36.2443 18.9506L43.9296 31.1629C45.149 33.3103 48.2534 33.2444 49.4398 31.1629L52.9332 25.6167C52.3636 26.2727 51.0547 26.8418 49.9605 26.664C48.8664 26.4796 48.1414 25.8209 47.535 25.0172Z"
        fill="white"/>
    <path fill-rule="evenodd" clip-rule="evenodd"
          d="M54.5048 23.1113L57.112 18.9441C57.9557 17.4488 57.4152 15.5649 55.919 14.7284C54.4228 13.8919 52.5312 14.432 51.6875 15.9206C51.6875 15.9206 49.3818 19.6513 47.3406 22.9369C47.3921 23.0186 47.4437 23.1005 47.4952 23.1823L47.5871 23.3278L47.5872 23.3279C47.8414 23.7304 48.0694 24.0917 48.3203 24.4279C48.8551 25.1362 49.3827 25.57 50.1207 25.6953C50.4547 25.749 50.877 25.693 51.2968 25.5345C52.1293 25.2202 53.3436 24.1856 54.5048 23.1113Z"
          fill="white"/>
</svg>
