<svg width="24" height="23" viewBox="0 0 24 23" fill="none" xmlns="http://www.w3.org/2000/svg">
    <path
        d="M7.22622 11.602C8.26352 13.7227 9.98252 15.4339 12.1079 16.4615C12.2634 16.5352 12.4354 16.5671 12.607 16.5541C12.7786 16.5412 12.9438 16.4837 13.0865 16.3875L16.2159 14.3007C16.3543 14.2084 16.5136 14.1521 16.6792 14.1369C16.8449 14.1217 17.0117 14.148 17.1646 14.2135L23.0193 16.7227C23.2182 16.8071 23.3842 16.954 23.4924 17.141C23.6006 17.3281 23.645 17.5452 23.6191 17.7597C23.434 19.2078 22.7275 20.5387 21.6318 21.5033C20.5362 22.4679 19.1265 23 17.6667 23.0001C13.158 23.0001 8.83399 21.2091 5.64587 18.0209C2.45775 14.8328 0.666687 10.5088 0.666687 6.00012C0.666764 4.54034 1.19893 3.13064 2.16354 2.03497C3.12815 0.939298 4.45906 0.232796 5.90706 0.0477476C6.12158 0.0217875 6.33872 0.066246 6.52578 0.174425C6.71283 0.282604 6.85966 0.448644 6.94415 0.647526L9.45546 6.50726C9.52042 6.65883 9.54689 6.82411 9.53251 6.98838C9.51813 7.15265 9.46335 7.31082 9.37305 7.44879L7.2935 10.6263C7.19885 10.7692 7.1429 10.9342 7.13111 11.1053C7.11931 11.2763 7.15209 11.4475 7.22622 11.602V11.602Z"
        fill="white"/>
</svg>
