<svg width="38" height="38" viewBox="0 0 38 38" fill="none" xmlns="http://www.w3.org/2000/svg">
    <path
        d="M19 38C15.2422 38 11.5687 36.8857 8.44418 34.7979C5.31964 32.7102 2.88436 29.7428 1.4463 26.271C0.00823234 22.7992 -0.368031 18.9789 0.365088 15.2933C1.09821 11.6076 2.90778 8.22215 5.56498 5.56495C8.22218 2.90775 11.6077 1.09818 15.2933 0.365058C18.9789 -0.368062 22.7992 0.00820183 26.271 1.44627C29.7428 2.88433 32.7102 5.31961 34.7979 8.44415C36.8857 11.5687 38 15.2421 38 19C37.9945 24.0374 35.991 28.867 32.429 32.429C28.867 35.991 24.0374 37.9945 19 38ZM19 2.6244C15.7612 2.6244 12.5952 3.58481 9.90223 5.38418C7.20928 7.18356 5.11038 9.74107 3.87095 12.7333C2.63152 15.7256 2.30723 19.0181 2.93908 22.1947C3.57094 25.3712 5.13056 28.2891 7.42073 30.5793C9.71089 32.8694 12.6287 34.4291 15.8053 35.0609C18.9818 35.6928 22.2744 35.3685 25.2667 34.129C28.2589 32.8896 30.8164 30.7907 32.6158 28.0978C34.4152 25.4048 35.3756 22.2388 35.3756 19C35.3701 14.6586 33.6431 10.4966 30.5733 7.42672C27.5034 4.35689 23.3414 2.62986 19 2.6244Z"
        fill="white"/>
    <path
        d="M27.987 29.2863C27.7567 29.2868 27.5303 29.2265 27.3307 29.1115C27.1311 28.9966 26.9653 28.831 26.8501 28.6315C26.0546 27.2535 24.9103 26.1091 23.5323 25.3135C22.1544 24.5179 20.5912 24.0991 19.0001 24.0991C17.4089 24.0991 15.8457 24.5179 14.4678 25.3135C13.0898 26.1091 11.9455 27.2535 11.15 28.6315C10.9742 28.9298 10.6876 29.1465 10.3527 29.2344C10.0178 29.3224 9.66173 29.2744 9.36208 29.1009C9.06242 28.9274 8.84346 28.6425 8.75293 28.3083C8.66239 27.9741 8.70762 27.6177 8.87875 27.3167C9.90505 25.5386 11.3816 24.0621 13.1598 23.0359C14.938 22.0097 16.9551 21.47 19.0082 21.471C21.0612 21.4721 23.0778 22.0139 24.855 23.0419C26.6321 24.0699 28.1072 25.5478 29.1317 27.327C29.2471 27.5264 29.308 27.7526 29.3082 27.9829C29.3085 28.2133 29.2481 28.4397 29.1331 28.6393C29.0182 28.8389 28.8527 29.0047 28.6533 29.1201C28.4539 29.2355 28.2277 29.2964 27.9973 29.2966L27.987 29.2863Z"
        fill="white"/>
    <path
        d="M16.52 15.3753C16.5195 16.0997 16.3042 16.8078 15.9013 17.4098C15.4985 18.0119 14.9262 18.4811 14.2567 18.758C13.5873 19.0348 12.8508 19.107 12.1403 18.9654C11.4299 18.8237 10.7774 18.4746 10.2653 17.9622C9.75323 17.4498 9.40458 16.797 9.26344 16.0865C9.1223 15.3759 9.19499 14.6395 9.47234 13.9702C9.74969 13.301 10.2192 12.729 10.8216 12.3266C11.424 11.9241 12.1322 11.7094 12.8566 11.7094C13.8282 11.7107 14.7596 12.0975 15.4464 12.7847C16.1332 13.472 16.5193 14.4037 16.52 15.3753Z"
        fill="white"/>
    <path
        d="M28.5671 15.3753C28.5666 16.0997 28.3513 16.8078 27.9484 17.4098C27.5456 18.0119 26.9733 18.4811 26.3038 18.758C25.6344 19.0348 24.8979 19.107 24.1875 18.9654C23.477 18.8237 22.8245 18.4746 22.3124 17.9622C21.8003 17.4498 21.4517 16.797 21.3106 16.0865C21.1694 15.3759 21.2421 14.6395 21.5195 13.9702C21.7968 13.301 22.2664 12.729 22.8687 12.3266C23.4711 11.9241 24.1793 11.7094 24.9037 11.7094C25.8753 11.7107 26.8067 12.0975 27.4935 12.7847C28.1803 13.472 28.5664 14.4037 28.5671 15.3753Z"
        fill="white"/>
</svg>
