<svg width="57" height="57" viewBox="0 0 57 57" fill="none" xmlns="http://www.w3.org/2000/svg">
    <path
        d="M13.3548 15.2913C14.1404 15.2913 14.7798 14.6519 14.7798 13.8663C14.7798 13.0807 14.1404 12.4413 13.3548 12.4413C12.5692 12.4413 11.9298 13.0807 11.9298 13.8663C11.9116 14.6519 12.551 15.2913 13.3548 15.2913Z"
        fill="white"/>
    <path
        d="M53.1635 6.52206C53.9491 6.52206 54.5885 5.88263 54.5885 5.09706C54.5885 4.31148 53.9491 3.67206 53.1635 3.67206C52.3779 3.67206 51.7385 4.31148 51.7385 5.09706C51.7202 5.88263 52.3596 6.52206 53.1635 6.52206Z"
        fill="white"/>
    <path
        d="M45.8009 49.6922C45.0153 49.6922 44.3759 50.3317 44.3759 51.1172C44.3759 51.9028 45.0153 52.5422 45.8009 52.5422C46.5865 52.5422 47.2259 51.9028 47.2259 51.1172C47.2259 50.3317 46.5865 49.6922 45.8009 49.6922Z"
        fill="white"/>
    <path
        d="M3.5077 4.51244C4.29328 4.51244 4.9327 3.87302 4.9327 3.08744C4.9327 2.30187 4.29328 1.66245 3.5077 1.66245C2.72213 1.66245 2.0827 2.30187 2.0827 3.08744C2.0827 3.87302 2.72213 4.51244 3.5077 4.51244Z"
        fill="white"/>
    <path
        d="M54.6981 40.4298C53.9125 40.4298 53.2731 41.0693 53.2731 41.8548C53.2731 42.6404 53.9125 43.2798 54.6981 43.2798C55.4836 43.2798 56.1231 42.6404 56.1231 41.8548C56.1231 41.0693 55.4836 40.4298 54.6981 40.4298Z"
        fill="white"/>
    <path
        d="M10.7971 52.3779C10.0116 52.3779 9.37213 53.0174 9.37213 53.8029C9.37213 54.5885 10.0116 55.2279 10.7971 55.2279C11.5827 55.2279 12.2221 54.5885 12.2221 53.8029C12.2404 53.0174 11.5827 52.3779 10.7971 52.3779Z"
        fill="white"/>
    <path
        d="M7.3077 42.7317H5.68174V41.1058C5.68174 40.7404 5.38943 40.4481 5.02405 40.4481C4.65866 40.4481 4.36636 40.7404 4.36636 41.1058V42.7317H2.74039C2.37501 42.7317 2.0827 43.024 2.0827 43.3894C2.0827 43.7548 2.37501 44.0471 2.74039 44.0471H4.36636V45.6731C4.36636 46.0384 4.65866 46.3308 5.02405 46.3308C5.38943 46.3308 5.68174 46.0384 5.68174 45.6731V44.0471H7.3077C7.67309 44.0471 7.96539 43.7548 7.96539 43.3894C7.96539 43.024 7.67309 42.7317 7.3077 42.7317Z"
        fill="white"/>
    <path
        d="M41.2336 13.7384H42.8596V15.3644C42.8596 15.7298 43.1519 16.0221 43.5173 16.0221C43.8827 16.0221 44.175 15.7298 44.175 15.3644V13.7384H45.8009C46.1663 13.7384 46.4586 13.4461 46.4586 13.0807C46.4586 12.7153 46.1663 12.423 45.8009 12.423H44.175V10.7971C44.175 10.4317 43.8827 10.1394 43.5173 10.1394C43.1519 10.1394 42.8596 10.4317 42.8596 10.7971V12.423H41.2336C40.8682 12.423 40.5759 12.7153 40.5759 13.0807C40.5759 13.4461 40.8682 13.7384 41.2336 13.7384Z"
        fill="white"/>
    <path
        d="M34.2365 17.6846C34.4375 17.5385 34.5471 17.2827 34.4923 17.0452L33.524 11.4183L37.6346 7.43558C37.8173 7.25288 37.8721 6.99712 37.799 6.75962C37.7259 6.52212 37.5067 6.33942 37.2692 6.30288L31.624 5.48077L29.0846 0.365385C28.975 0.146154 28.7375 0 28.5 0C28.2442 0 28.025 0.146154 27.9154 0.365385L25.3942 5.48077L19.7307 6.30288C19.475 6.33942 19.274 6.50385 19.2009 6.75962C19.1279 6.99712 19.1827 7.25288 19.3654 7.43558L23.4577 11.4183L22.4894 17.0452C22.4529 17.301 22.5442 17.5385 22.7452 17.6846C22.9461 17.8308 23.2202 17.849 23.4394 17.7394L28.5 15.0721L33.5423 17.7212C33.6336 17.776 33.7432 17.7942 33.8529 17.7942C33.999 17.8125 34.1269 17.7577 34.2365 17.6846ZM28.8105 13.7385C28.7192 13.6837 28.6096 13.6654 28.5 13.6654C28.3904 13.6654 28.2807 13.6837 28.1894 13.7385L24.0057 15.9308L24.8096 11.2904C24.8461 11.0712 24.7731 10.8519 24.6269 10.7058L21.2471 7.41731L25.9057 6.74135C26.125 6.70481 26.3077 6.57692 26.399 6.37596L28.5 2.15577L30.5827 6.39423C30.674 6.59519 30.8567 6.72308 31.0759 6.75962L35.7346 7.43558L32.3548 10.724C32.1904 10.8702 32.1355 11.0894 32.1721 11.3087L32.9759 15.949L28.8105 13.7385Z"
        fill="white"/>
    <path
        d="M28.5 19.2375C28.1346 19.2375 27.8423 19.5298 27.8423 19.8951V56.3423C27.8423 56.7077 28.1346 57 28.5 57C28.8654 57 29.1577 56.7077 29.1577 56.3423V19.8951C29.1577 19.5298 28.8654 19.2375 28.5 19.2375Z"
        fill="white"/>
    <path
        d="M56.9635 22.2885C56.8904 22.051 56.6712 21.8683 56.4337 21.8317L52.6519 21.2837L50.9712 17.8856C50.8616 17.6664 50.6241 17.5202 50.3866 17.5202C50.1308 17.5202 49.9116 17.6664 49.8019 17.8856L48.1212 21.3019L44.3394 21.85C44.0837 21.8865 43.8827 22.051 43.8096 22.3067C43.7366 22.5442 43.7914 22.8 43.9741 22.9827L46.6962 25.65L46.0568 29.4135C46.0202 29.6692 46.1116 29.9067 46.3125 30.0529C46.5135 30.1991 46.7875 30.2173 47.0068 30.1077L50.3866 28.3356L53.7664 30.1077C53.8577 30.1625 53.9673 30.1808 54.0769 30.1808C54.2048 30.1808 54.351 30.1442 54.4606 30.0529C54.6616 29.9067 54.7712 29.651 54.7164 29.4135L54.0769 25.65L56.7991 22.9827C56.9818 22.8 57.0366 22.5442 56.9635 22.2885ZM52.9077 24.9375C52.7433 25.0837 52.6885 25.3029 52.725 25.5221L53.2 28.2991L50.6971 26.9837C50.6058 26.9289 50.4962 26.9106 50.3866 26.9106C50.2769 26.9106 50.1673 26.9289 50.076 26.9837L47.5731 28.2991L48.0481 25.5221C48.0846 25.3029 48.0116 25.0837 47.8654 24.9375L45.8375 22.9644L48.6327 22.5625C48.8519 22.526 49.0346 22.3981 49.126 22.1971L50.3683 19.6577L51.6106 22.1971C51.7019 22.3981 51.8846 22.526 52.1039 22.5625L54.8991 22.9644L52.9077 24.9375Z"
        fill="white"/>
    <path
        d="M44.7779 31.7336C44.4673 31.5326 44.0654 31.624 43.8644 31.9346C43.7913 32.0259 37.3788 42.074 36.374 56.3057C36.3558 56.6711 36.6298 56.9817 36.9769 57.0182C36.9952 57.0182 37.0135 57.0182 37.0317 57.0182C37.3788 57.0182 37.6711 56.7442 37.6894 56.3971C38.6577 42.5307 44.9058 32.7567 44.9606 32.6471C45.1798 32.3365 45.0884 31.9346 44.7779 31.7336Z"
        fill="white"/>
    <path
        d="M2.28362 29.3952C2.24708 29.651 2.33843 29.8885 2.53939 30.0347C2.74035 30.1808 3.01439 30.1991 3.23362 30.0895L6.61343 28.3174L9.99324 30.0895C10.0846 30.1443 10.1942 30.1626 10.3038 30.1626C10.4317 30.1626 10.5779 30.126 10.6875 30.0347C10.8884 29.8885 10.998 29.6327 10.9432 29.3952L10.3038 25.6318L13.0259 22.9645C13.2086 22.7818 13.2634 22.526 13.1904 22.2885C13.1173 22.051 12.898 21.8683 12.6605 21.8318L8.87881 21.2837L7.19804 17.8674C7.08843 17.6481 6.85093 17.502 6.61343 17.502C6.35766 17.502 6.13843 17.6481 6.02881 17.8674L4.34804 21.2837L0.566314 21.8318C0.310545 21.8683 0.109584 22.0328 0.0365067 22.2885C-0.0365703 22.526 0.0182374 22.7818 0.20093 22.9645L2.92304 25.6318L2.28362 29.3952ZM2.08266 22.9645L4.87785 22.5626C5.09708 22.526 5.27978 22.3981 5.37112 22.1972L6.61343 19.6578L7.85574 22.1972C7.94708 22.3981 8.12978 22.526 8.34901 22.5626L11.1442 22.9645L9.13458 24.9376C8.97016 25.0837 8.91535 25.3029 8.95189 25.5222L9.42689 28.2991L6.92401 26.9837C6.83266 26.9289 6.72304 26.9106 6.61343 26.9106C6.50381 26.9106 6.3942 26.9289 6.30285 26.9837L3.79997 28.2991L4.27497 25.5222C4.31151 25.3029 4.23843 25.0837 4.09228 24.9376L2.08266 22.9645Z"
        fill="white"/>
    <path
        d="M12.2221 31.7336C11.9116 31.9346 11.8202 32.3365 12.0212 32.6471C12.076 32.7384 18.324 42.5125 19.2923 56.3971C19.3106 56.7442 19.6029 57.0182 19.95 57.0182C19.9683 57.0182 19.9865 57.0182 20.0048 57.0182C20.3702 57 20.6442 56.6711 20.6077 56.3057C19.6029 42.074 13.1904 32.0259 13.1173 31.9346C12.9346 31.624 12.5144 31.5326 12.2221 31.7336Z"
        fill="white"/>
    <path
        d="M38.8221 23.8596C38.4933 23.6769 38.1096 23.8048 37.9269 24.1154C33.8711 31.5692 33.6154 41.5808 33.5971 42.001C33.5971 42.3663 33.8711 42.6586 34.2365 42.6769H34.2548C34.6202 42.6769 34.9125 42.3846 34.9125 42.0375C34.9125 41.9461 35.1683 31.9346 39.0779 24.7548C39.2606 24.4442 39.151 24.0423 38.8221 23.8596Z"
        fill="white"/>
    <path
        d="M18.3971 23.8595C18.0683 24.0422 17.9587 24.4259 18.1414 24.7547C22.051 31.9162 22.3067 41.9278 22.3067 42.0374C22.3067 42.4028 22.6173 42.6768 22.9644 42.6768H22.9827C23.3481 42.6768 23.6404 42.3662 23.6221 42.0008C23.6039 41.5807 23.3481 31.5691 19.2923 24.1153C19.1096 23.8047 18.7077 23.6951 18.3971 23.8595Z"
        fill="white"/>
</svg>
