<svg width="49" height="49" viewBox="0 0 49 49" fill="none" xmlns="http://www.w3.org/2000/svg">
    <path
        d="M24.5 49C10.9957 49 0 38.0043 0 24.5C0 10.9957 10.9957 0 24.5 0C38.0043 0 49 10.9957 49 24.5C49 38.0043 38.0043 49 24.5 49ZM24.5 1.8756C12.0273 1.8756 1.8756 12.0273 1.8756 24.5C1.8756 36.9727 12.0273 47.1244 24.5 47.1244C36.9727 47.1244 47.1244 36.9727 47.1244 24.5C47.1244 12.0273 36.9727 1.8756 24.5 1.8756Z"
        fill="white"/>
    <path
        d="M16.6449 31.2357C16.2228 30.8796 15.5919 30.933 15.2357 31.3551C14.8796 31.7772 14.933 32.4081 15.3551 32.7643L16.6449 31.2357ZM32.6449 32.7643C33.067 32.4081 33.1204 31.7772 32.7643 31.3551C32.4081 30.933 31.7772 30.8796 31.3551 31.2357L32.6449 32.7643ZM15.3551 32.7643C16.6408 33.8491 20.1215 36 24 36V34C20.7674 34 17.7296 32.1509 16.6449 31.2357L15.3551 32.7643ZM24 36C27.8785 36 31.3592 33.8491 32.6449 32.7643L31.3551 31.2357C30.2704 32.1509 27.2326 34 24 34V36Z"
        fill="white"/>
    <path d="M17.6757 15.4844L9.38806 18.6895L10.0646 20.4388L18.3522 17.2338L17.6757 15.4844Z" fill="white"/>
    <path d="M31.1676 15.4662L30.4908 17.2156L38.7785 20.4215L39.4552 18.6721L31.1676 15.4662Z" fill="white"/>
</svg>
