<svg width="90" height="29" viewBox="0 0 90 29" fill="none" xmlns="http://www.w3.org/2000/svg">
    <path
        d="M87.0586 26.0013H82.4745C82.2453 26.0013 82.0543 25.8115 82.0543 25.5838V4.4411C82.0543 4.21335 82.2453 4.02356 82.4745 4.02356H87.0586C87.2878 4.02356 87.4788 4.21335 87.4788 4.4411V25.5838C87.4788 25.8115 87.2878 26.0013 87.0586 26.0013Z"
        fill="white"/>
    <path
        d="M52.831 26.0013H48.247C48.0178 26.0013 47.8268 25.8115 47.8268 25.5838V4.44109C47.8268 4.21334 48.0178 4.06151 48.247 4.06151H52.831C53.0602 4.06151 53.2512 4.2513 53.2512 4.44109V25.5838C53.2512 25.8115 53.0602 26.0013 52.831 26.0013Z"
        fill="white"/>
    <path
        d="M26.129 21.3704C26.129 23.8757 23.6841 26.0013 18.4889 26.0013C15.2419 26.0013 12.5678 25.1662 10.696 24.0275C10.505 23.9136 10.4668 23.61 10.5814 23.4581L12.2622 21.3325C12.3768 21.1806 12.606 21.1427 12.7589 21.2565C14.1723 22.0537 16.1205 22.661 18.6035 22.661C20.1697 22.661 21.0865 22.4712 21.0865 21.9018C21.0865 21.3704 20.2843 21.1806 18.2215 21.0288C14.4779 20.839 10.8488 19.7003 10.8488 16.7775C10.8488 14.0825 13.7903 12.2984 18.4507 12.2984C21.0483 12.2984 23.4549 12.8298 25.2122 13.7029C25.4414 13.8168 25.5178 14.1204 25.365 14.3102L23.6841 16.4738C23.5695 16.6257 23.3403 16.6636 23.1875 16.5877C21.9269 15.9804 20.2843 15.6387 18.4125 15.6387C17.1137 15.6387 15.8913 15.7906 15.8913 16.3599C15.8913 16.8914 16.8845 17.0052 18.8327 17.1191C22.9201 17.3469 26.129 18.5236 26.129 21.3704Z"
        fill="white"/>
    <path
        d="M28.4974 19.1309C28.4974 14.8796 31.8209 12.2984 37.0161 12.2984C42.2114 12.2984 45.5348 14.8796 45.5348 19.1309C45.5348 23.3822 42.2114 26.0013 37.0161 26.0013C31.8209 26.0013 28.4974 23.4202 28.4974 19.1309ZM40.4159 19.1309C40.4159 17.2709 39.0025 16.284 37.0161 16.284C35.0679 16.284 33.6163 17.2709 33.6163 19.1309C33.6163 20.9908 35.0679 22.0157 37.0161 22.0157C39.0025 22.0157 40.4159 21.0288 40.4159 19.1309Z"
        fill="white"/>
    <path
        d="M64.7113 22.4332C66.4685 22.4332 67.4999 22.0537 68.6077 21.3325C68.7605 21.2186 68.9897 21.2565 69.1425 21.3704L71.2054 23.4961C71.3582 23.6479 71.3582 23.9516 71.1672 24.0654C69.3717 25.4699 67.1179 26.0013 64.4057 26.0013C58.8667 26.0013 55.6196 23.4202 55.6196 19.1309C55.6196 14.8796 58.8285 12.2605 63.9855 12.2605C68.5695 12.2605 71.9694 14.5 71.9694 18.9791C71.9694 19.3586 71.9312 19.6623 71.893 19.928C71.8548 20.1178 71.702 20.2317 71.511 20.2317H60.7385C61.1205 21.8259 62.4957 22.4332 64.7113 22.4332ZM60.8531 17.6885L67.1561 17.6505C66.7359 16.4359 65.7045 15.8285 64.0619 15.8285C62.4193 15.8285 61.3115 16.4359 60.8531 17.6885Z"
        fill="white"/>
    <path
        d="M74.0322 9.86911C74.0322 8.38874 75.2546 7.43979 77.0501 7.43979C78.8455 7.43979 80.0679 8.38874 80.0679 9.86911C80.0679 11.3495 78.8455 12.2984 77.0501 12.2984C75.2546 12.2984 74.0322 11.3495 74.0322 9.86911Z"
        fill="white"/>
    <path
        d="M79.3421 26.0013H74.7581C74.5289 26.0013 74.3379 25.8115 74.3379 25.5838V13.7408C74.3379 13.5131 74.5289 13.3613 74.7581 13.3613H79.3421C79.5713 13.3613 79.7623 13.551 79.7623 13.7788V25.6217C79.7241 25.8115 79.5713 26.0013 79.3421 26.0013Z"
        fill="white"/>
    <path
        d="M3.78181 6.30104V7.17408H6.03563C6.07383 7.17408 6.11203 7.21204 6.11203 7.25V7.78141C6.11203 7.81937 6.07383 7.85733 6.03563 7.85733H2.9796C2.9414 7.85733 2.9032 7.81937 2.9032 7.78141V4.17539C2.9032 4.13743 2.9414 4.09947 2.9796 4.09947H5.99742C6.03563 4.09947 6.07383 4.13743 6.07383 4.17539V4.7068C6.07383 4.74476 6.03563 4.78272 5.99742 4.78272H3.78181V5.54188H5.80642C5.84462 5.54188 5.88282 5.57984 5.88282 5.6178V6.14921C5.88282 6.18717 5.84462 6.22513 5.80642 6.22513H3.78181V6.30104Z"
        fill="white"/>
    <path
        d="M10.0849 7.89528L8.1367 5.92146C7.94569 5.73167 7.71649 5.42801 7.71649 5.42801H7.67829V7.81937C7.67829 7.85733 7.64009 7.89528 7.60189 7.89528H6.87608C6.83788 7.89528 6.79968 7.85733 6.79968 7.81937V4.17539C6.79968 4.13743 6.83788 4.09947 6.87608 4.09947H7.44909L9.39731 6.07329C9.62651 6.30104 9.85571 6.60471 9.85571 6.60471H9.89391V4.17539C9.89391 4.13743 9.93211 4.09947 9.97031 4.09947H10.6961C10.7343 4.09947 10.7725 4.13743 10.7725 4.17539V7.81937C10.7725 7.85733 10.7343 7.89528 10.6961 7.89528H10.0849Z"
        fill="white"/>
    <path
        d="M11.3454 4.82068C11.3072 4.82068 11.269 4.78272 11.269 4.74476V4.17539C11.269 4.13743 11.3072 4.09947 11.3454 4.09947H14.9745C15.0127 4.09947 15.0509 4.13743 15.0509 4.17539V4.7068C15.0509 4.74476 15.0127 4.78272 14.9745 4.78272H13.5993V7.78141C13.5993 7.81937 13.5611 7.85733 13.5229 7.85733H12.7971C12.7589 7.85733 12.7207 7.81937 12.7207 7.78141V4.78272H11.3454V4.82068Z"
        fill="white"/>
    <path
        d="M16.4643 6.30104V7.17408H18.7181C18.7563 7.17408 18.7945 7.21204 18.7945 7.25V7.78141C18.7945 7.81937 18.7563 7.85733 18.7181 7.85733H15.6621C15.6239 7.85733 15.5857 7.81937 15.5857 7.78141V4.17539C15.5857 4.13743 15.6239 4.09947 15.6621 4.09947H18.6799C18.7181 4.09947 18.7563 4.13743 18.7563 4.17539V4.7068C18.7563 4.74476 18.7181 4.78272 18.6799 4.78272H16.4643V5.54188H18.4889C18.5271 5.54188 18.5653 5.57984 18.5653 5.6178V6.14921C18.5653 6.18717 18.5271 6.22513 18.4889 6.22513H16.4643V6.30104Z"
        fill="white"/>
    <path
        d="M19.4822 4.17539C19.4822 4.13743 19.5204 4.09947 19.5586 4.09947H21.354C22.2708 4.09947 22.9584 4.59293 22.9584 5.42801C22.9584 5.99738 22.6146 6.37696 22.0798 6.56675C22.0798 6.56675 22.1944 6.68062 22.2708 6.83246L22.9202 7.78141C22.9584 7.81937 22.9584 7.85733 22.9584 7.85733C22.9584 7.89528 22.9584 7.89528 22.9202 7.89528H22.0798C22.0416 7.89528 22.0034 7.85733 21.9652 7.81937L21.2012 6.68062H20.3608V7.78141C20.3608 7.81937 20.3226 7.85733 20.2844 7.85733H19.5586C19.5204 7.85733 19.4822 7.81937 19.4822 7.78141V4.17539ZM20.3608 4.82068V6.03534H21.2776C21.7742 6.03534 22.0798 5.80759 22.0798 5.42801C22.0798 5.04843 21.7742 4.82068 21.2776 4.82068H20.3608Z"
        fill="white"/>
    <path
        d="M23.2258 4.82068C23.1876 4.82068 23.1494 4.78272 23.1494 4.74476V4.17539C23.1494 4.13743 23.1876 4.09947 23.2258 4.09947H26.8548C26.893 4.09947 26.9312 4.13743 26.9312 4.17539V4.7068C26.9312 4.74476 26.893 4.78272 26.8548 4.78272H25.4796V7.78141C25.4796 7.81937 25.4414 7.85733 25.4032 7.85733H24.6774C24.6392 7.85733 24.601 7.81937 24.601 7.78141V4.78272H23.2258V4.82068Z"
        fill="white"/>
    <path
        d="M29.5288 7.25H27.657L27.3896 7.81937C27.3514 7.89528 27.3132 7.89528 27.2368 7.89528H26.4728C26.4346 7.89528 26.4346 7.85733 26.4346 7.85733C26.4346 7.85733 26.4346 7.81937 26.4728 7.78141L28.2682 4.09947H28.9176L30.713 7.78141C30.713 7.81937 30.7512 7.85733 30.7512 7.85733C30.7512 7.85733 30.7512 7.89528 30.713 7.89528H29.949C29.8726 7.89528 29.8344 7.89528 29.7962 7.81937L29.5288 7.25ZM27.9626 6.56675H29.2232L28.8794 5.84555C28.7266 5.57984 28.612 5.1623 28.612 5.1623H28.5738C28.5738 5.1623 28.421 5.57984 28.3064 5.84555L27.9626 6.56675Z"
        fill="white"/>
    <path
        d="M32.1264 7.81937C32.1264 7.85733 32.0882 7.89528 32.05 7.89528H31.3242C31.286 7.89528 31.2478 7.85733 31.2478 7.81937V4.17539C31.2478 4.13743 31.286 4.09947 31.3242 4.09947H32.05C32.0882 4.09947 32.1264 4.13743 32.1264 4.17539V7.81937Z"
        fill="white"/>
    <path
        d="M36.3284 7.89528L34.3802 5.92146C34.1892 5.73167 33.96 5.42801 33.96 5.42801H33.9218V7.81937C33.9218 7.85733 33.8836 7.89528 33.8454 7.89528H33.1196C33.0814 7.89528 33.0432 7.85733 33.0432 7.81937V4.17539C33.0432 4.13743 33.0814 4.09947 33.1196 4.09947H33.6926L35.6408 6.07329C35.87 6.30104 36.0992 6.60471 36.0992 6.60471H36.1374V4.17539C36.1374 4.13743 36.1756 4.09947 36.2138 4.09947H36.9396C36.9778 4.09947 37.016 4.13743 37.016 4.17539V7.81937C37.016 7.85733 36.9778 7.89528 36.9396 7.89528H36.3284Z"
        fill="white"/>
    <path
        d="M38.7733 6.30104V7.17408H41.0271C41.0653 7.17408 41.1035 7.21204 41.1035 7.25V7.78141C41.1035 7.81937 41.0653 7.85733 41.0271 7.85733H37.9711C37.9329 7.85733 37.8947 7.81937 37.8947 7.78141V4.17539C37.8947 4.13743 37.9329 4.09947 37.9711 4.09947H40.9889C41.0271 4.09947 41.0653 4.13743 41.0653 4.17539V4.7068C41.0653 4.74476 41.0271 4.78272 40.9889 4.78272H38.7733V5.54188H40.7979C40.8361 5.54188 40.8743 5.57984 40.8743 5.6178V6.14921C40.8743 6.18717 40.8361 6.22513 40.7979 6.22513H38.7733V6.30104Z"
        fill="white"/>
    <path
        d="M41.7911 4.17539C41.7911 4.13743 41.8293 4.09947 41.8675 4.09947H43.663C44.5798 4.09947 45.2674 4.59293 45.2674 5.42801C45.2674 5.99738 44.9236 6.37696 44.3888 6.56675C44.3888 6.56675 44.5034 6.68062 44.5798 6.83246L45.2292 7.78141C45.2674 7.81937 45.2674 7.85733 45.2674 7.85733C45.2674 7.89528 45.2674 7.89528 45.2292 7.89528H44.3888C44.3506 7.89528 44.3124 7.85733 44.2742 7.81937L43.5102 6.68062H42.6697V7.78141C42.6697 7.81937 42.6315 7.85733 42.5933 7.85733H41.8675C41.8293 7.85733 41.7911 7.81937 41.7911 7.78141V4.17539ZM42.6697 4.82068V6.03534H43.5866C44.0832 6.03534 44.3888 5.80759 44.3888 5.42801C44.3888 5.04843 44.0832 4.82068 43.5866 4.82068H42.6697Z"
        fill="white"/>
</svg>
