<svg viewBox="0 0 575 155" xmlns="http://www.w3.org/2000/svg">
    <path d="m93.69 42.68 23.31-23.34a66.1 66.1 0 0 0 -103.58 13.14 66.07 66.07 0 0 1 80.27 10.2z" fill="#ffaba7"/>
    <path d="m23.62 112.75-23.33 23.33a66.1 66.1 0 0 0 103.6-13.14 66.07 66.07 0 0 1 -80.27-10.19z" fill="#ffaba7"/>
    <path d="m93.69 42.68-70.07 70.07a66.07 66.07 0 0 0 80.27 10.2 66.07 66.07 0 0 0 -10.2-80.27z" fill="#ffaba7"/>
    <g fill="white">
        <path d="m23.62 112.75 70.07-70.07a66.07 66.07 0 0 0 -80.27-10.2 66.07 66.07 0 0 0 10.2 80.27z"/>
        <path
            d="m228.25 94.14c0 14.57-11.14 28.8-33.95 28.8-26.75 0-35.32-17.32-36-26.75l22.12-3.94c.34 5.83 4.46 11.49 13.37 11.49 6.69 0 9.95-3.6 9.95-7.37 0-3.09-2.06-5.66-8.4-7l-9.77-2.23c-18.17-3.94-25.38-14.23-25.38-26.23 0-15.6 13.72-28.29 32.75-28.29 24.68-.03 33.25 15.38 34.06 25.38l-21.61 3.94c-.69-5.66-4.29-10.46-12.17-10.46-5 0-9.26 2.91-9.26 7.37 0 3.6 2.91 5.66 6.69 6.34l11.35 2.2c17.67 3.61 26.25 14.23 26.25 26.75zm197.82-18.77a45.23 45.23 0 1 1 -42.81-42.82 45.23 45.23 0 0 1 42.81 42.82zm-26 2.35c0-11.72-8.6-21.23-19.2-21.23s-19.2 9.5-19.2 21.23 8.6 21.23 19.2 21.23 19.23-9.51 19.23-21.23zm120.83-77.61a13 13 0 1 0 11.23 11.22 13 13 0 0 0 -11.23-11.22zm-14.72 122.83h26.06v-76.14l-26.06-14.32zm54.36-73.35a13 13 0 1 0 -11.22-11.23 13 13 0 0 0 11.22 11.23zm-11.34 6.54v66.82h26.06v-52.5zm-101.73-23.65h-15.69v26.16h15.69v35.57a28.74 28.74 0 0 0 28.74 28.74h13v-26.07h-3.49c-6.74 0-12.2-6-12.2-13.49v-24.75h15.69v-26.16h-15.68v-17.95l-26.14-14.53zm-181.85 83.45v39.49l-26.07-14.32v-108.62h26.06v7a39.59 39.59 0 0 1 22.43-7c23.18 0 42 20.25 42 45.23s-18.79 45.23-42 45.23a39.59 39.59 0 0 1 -22.42-7.01zm0-37.48c.36 11.37 8.79 20.48 19.17 20.48 10.61 0 19.2-9.5 19.2-21.23s-8.6-21.23-19.2-21.23c-10.38 0-18.81 9.11-19.17 20.48z"/>
    </g>
</svg>
