<?xml version="1.0" encoding="utf-8"?>
<!-- Generator: Adobe Illustrator 22.0.0, SVG Export Plug-In . SVG Version: 6.00 Build 0)  -->
<svg version="1.1" id="Layer_1" xmlns="http://www.w3.org/2000/svg" xmlns:xlink="http://www.w3.org/1999/xlink" x="0px"
     y="0px"
     viewBox="0 0 88.7 80.7" style="enable-background:new 0 0 88.7 80.7;" xml:space="preserve">
<style type="text/css">
	.st0{opacity:0.2;}
	.st1{fill:#FFFFFF;}
	.st2{fill:#66CDD9;}
</style>
    <path class="st1" d="M47,68.7c-5.9,0.4-11.6-1-16.6-3.9l-15.3,3c-0.8,0.2-1.5-0.7-1.1-1.4l5.6-12.4c-2.8-4.8-4.2-10.3-3.9-16
	C16.4,23,28.6,10.6,43.7,9.9c17.1-0.9,31.3,13,31,30C74.4,55.1,62.2,67.8,47,68.7z"/>
    <path class="st2" d="M43.2,15.6c-11.7,0.9-21.1,10.5-21.8,22.2c-0.4,5.9,1.4,11.4,4.7,15.8l-3,6.6c-0.1,0.2,0.1,0.4,0.3,0.4l8.2-1.6
	c4.3,3,9.7,4.6,15.5,4.2C58.7,62.1,68,52.8,68.9,41.2C70.1,26.6,57.9,14.4,43.2,15.6z"/>
    <path class="st1" d="M59.4,46.1c0-0.3-0.2-0.6-0.5-0.8c-2.1-1-4.2-1.9-6.3-2.9c-0.2-0.1-0.5-0.1-0.7,0.1L49,45.8
	c-0.2,0.3-0.6,0.3-0.9,0.2c-1.5-0.6-3.4-1.6-5.4-3.3c-2.4-2.1-3.8-4.2-4.6-5.7c0.4-0.3,1.5-1.1,1.9-2.5c0,0,0,0,0,0
	c0.3-0.9,0.2-1.9-0.1-2.8c-0.6-1.5-1.7-4.4-2.1-4.8c-0.1-0.1-0.2-0.1-0.2-0.1c-0.3-0.3-0.7-0.4-1.2-0.5c-0.1,0-0.3,0-0.5,0
	c-0.5,0-0.9,0-1.2,0c-0.9,0.1-1.6,0.7-2,1.2c-0.5,0.6-1.1,1.5-1.5,2.7c0,0.1-0.1,0.2-0.1,0.3c-0.4,1.5-0.4,3.1,0.2,4.6
	c0.5,1.4,1.2,3,2.3,4.8c1.8,3,3.8,4.8,5.1,6.1c1.5,1.4,3.4,3.1,6.3,4.5c2.7,1.3,5.2,1.8,6.9,2c0.7,0.1,1.9,0.1,3.4-0.5
	c0.7-0.3,1.2-0.6,1.7-0.9c1.2-0.8,2-2.1,2.2-3.5c0,0,0,0,0,0C59.4,47,59.4,46.5,59.4,46.1z"/>
</svg>
