<?xml version="1.0" encoding="utf-8"?>
<!-- Generator: Adobe Illustrator 22.0.0, SVG Export Plug-In . SVG Version: 6.00 Build 0)  -->
<svg version="1.1" id="Layer_1" xmlns="http://www.w3.org/2000/svg" xmlns:xlink="http://www.w3.org/1999/xlink" x="0px"
     y="0px"
     viewBox="0 0 32 32" style="enable-background:new 0 0 32 32;" xml:space="preserve">
<style type="text/css">
	.st0{fill:#FDA227;}
	.st1{fill:none;stroke:#FFFFFF;stroke-linecap:round;stroke-linejoin:round;stroke-miterlimit:10;}
</style>
    <path class="st0" d="M-442.4,481.5h-22.2c-2.7,0-4.9-2.2-4.9-4.9v-22.2c0-2.7,2.2-4.9,4.9-4.9h22.2c2.7,0,4.9,2.2,4.9,4.9v22.2
	C-437.4,479.3-439.6,481.5-442.4,481.5z"/>
    <polyline class="st1" points="-463,466.3 -463,471.8 -443.8,471.8 -443.8,466.3 "/>
    <polyline class="st1" points="-457.4,463.7 -453.4,467.6 -449.5,463.7 "/>
    <line class="st1" x1="-453.4" y1="467.6" x2="-453.4" y2="456.3"/>
    <line class="st1" x1="-463" y1="474.8" x2="-443.8" y2="474.8"/>
    <g>
	<path class="st0" d="M27.1,32H4.9C2.2,32,0,29.8,0,27.1V4.9C0,2.2,2.2,0,4.9,0h22.2C29.8,0,32,2.2,32,4.9v22.2
		C32,29.8,29.8,32,27.1,32z"/>
        <g>
		<g>
			<polyline class="st1" points="13.5,16.2 16,18.7 18.5,16.2 			"/>
            <line class="st1" x1="16" y1="18.7" x2="16" y2="13.3"/>
		</g>
            <path class="st1" d="M27.1,17.5l0.6-0.6c0.5-0.5,0.5-1.3,0-1.8L27,14.5c-0.4-0.4-0.5-0.9-0.3-1.4l0.3-0.8c0.3-0.7,0-1.4-0.7-1.7
			l-0.7-0.3c-0.5-0.2-0.8-0.7-0.8-1.2V8.4c0-0.7-0.6-1.3-1.3-1.3h-0.8c-0.5,0-1-0.3-1.2-0.8l-0.3-0.8c-0.3-0.7-1-1-1.7-0.7l-0.7,0.3
			c-0.5,0.2-1,0.1-1.4-0.3l-0.6-0.6c-0.5-0.5-1.3-0.5-1.8,0L14.5,5c-0.4,0.4-0.9,0.5-1.4,0.3l-0.8-0.3c-0.7-0.3-1.4,0-1.7,0.7
			l-0.3,0.7c-0.2,0.5-0.7,0.8-1.2,0.8H8.4c-0.7,0-1.3,0.6-1.3,1.3v0.8c0,0.5-0.3,1-0.8,1.2l-0.8,0.3c-0.7,0.3-1,1-0.7,1.7l0.3,0.7
			c0.2,0.5,0.1,1-0.3,1.4l-0.6,0.6c-0.5,0.5-0.5,1.3,0,1.8L5,17.5c0.4,0.4,0.5,0.9,0.3,1.4l-0.3,0.8c-0.3,0.7,0,1.4,0.7,1.7l0.7,0.3
			c0.5,0.2,0.8,0.7,0.8,1.2v0.8c0,0.7,0.6,1.3,1.3,1.3h0.8c0.5,0,1,0.3,1.2,0.8l0.3,0.8c0.3,0.7,1,1,1.7,0.7l0.7-0.3
			c0.5-0.2,1-0.1,1.4,0.3l0.6,0.6c0.5,0.5,1.3,0.5,1.8,0l0.6-0.6c0.4-0.4,0.9-0.5,1.4-0.3l0.8,0.3c0.7,0.3,1.4,0,1.7-0.7l0.3-0.7
			c0.2-0.5,0.7-0.8,1.2-0.8h0.8c0.7,0,1.3-0.6,1.3-1.3v-0.8c0-0.5,0.3-1,0.8-1.2l0.8-0.3c0.7-0.3,1-1,0.7-1.7l-0.3-0.7
			C26.6,18.4,26.7,17.8,27.1,17.5z"/>
            <circle class="st1" cx="16" cy="16" r="7.5"/>
	</g>
</g>
</svg>
