<?xml version="1.0" encoding="utf-8"?>
<!-- Generator: Adobe Illustrator 22.0.0, SVG Export Plug-In . SVG Version: 6.00 Build 0)  -->
<svg version="1.1" id="Layer_1" xmlns="http://www.w3.org/2000/svg" xmlns:xlink="http://www.w3.org/1999/xlink" x="0px"
     y="0px"
     viewBox="0 0 17 14" style="enable-background:new 0 0 17 14;" xml:space="preserve">
<style type="text/css">
	.st0{fill:#0067B3;}
</style>
    <g>
	<path class="st0" d="M13.8,14H3.2C1.5,14,0,12.5,0,10.7V3.3C0,1.5,1.5,0,3.2,0h10.5C15.5,0,17,1.5,17,3.3v7.4
		C17,12.5,15.5,14,13.8,14z M3.2,1.6c-0.9,0-1.6,0.7-1.6,1.6v7.4c0,0.9,0.7,1.6,1.6,1.6h10.5c0.9,0,1.6-0.7,1.6-1.6V3.3
		c0-0.9-0.7-1.6-1.6-1.6H3.2z"/>
</g>
    <g>
	<rect x="3.2" y="2.5" class="st0" width="4" height="1.6"/>
</g>
    <g>
	<rect x="3.2" y="7.3" class="st0" width="1.3" height="0.8"/>
</g>
    <g>
	<rect x="3.2" y="9.1" class="st0" width="1.3" height="0.8"/>
</g>
    <g>
	<rect x="3.2" y="10.7" class="st0" width="1.3" height="0.8"/>
</g>
    <g>
	<rect x="5.6" y="7.3" class="st0" width="1.3" height="0.8"/>
</g>
    <g>
	<rect x="5.6" y="9.1" class="st0" width="1.3" height="0.8"/>
</g>
    <g>
	<rect x="5.6" y="10.7" class="st0" width="1.3" height="0.8"/>
</g>
    <g>
	<rect x="7.9" y="7.3" class="st0" width="1.3" height="0.8"/>
</g>
    <g>
	<rect x="7.9" y="9.1" class="st0" width="1.3" height="0.8"/>
</g>
    <g>
	<rect x="7.9" y="10.7" class="st0" width="1.3" height="0.8"/>
</g>
    <g>
	<rect x="10.1" y="7.3" class="st0" width="1.3" height="0.8"/>
</g>
    <g>
	<rect x="10.1" y="9.1" class="st0" width="1.3" height="0.8"/>
</g>
    <g>
	<rect x="12.5" y="7.3" class="st0" width="1.3" height="0.8"/>
</g>
    <g>
	<rect x="12.5" y="9.1" class="st0" width="1.3" height="0.8"/>
</g>
    <g>
	<rect x="1.2" y="4.9" class="st0" width="14.6" height="1.6"/>
</g>
</svg>
